<mxfile host="app.diagrams.net" agent="Mozilla/5.0 (Windows NT 10.0; Win64; x64) AppleWebKit/537.36 (KHTML, like Gecko) Chrome/136.0.0.0 Safari/537.36 Edg/136.0.0.0" version="27.0.9">
  <diagram name="ページ1" id="XvXZGMSoU34Mvugd_IdP">
    <mxGraphModel dx="731" dy="3969" grid="1" gridSize="10" guides="1" tooltips="1" connect="1" arrows="1" fold="1" page="1" pageScale="1" pageWidth="827" pageHeight="1169" math="0" shadow="0">
      <root>
        <mxCell id="0" />
        <mxCell id="1" parent="0" />
        <UserObject label="" plantUmlData="{&quot;data&quot;:&quot;@startuml\nparticipant \&quot;User\&quot; as User\nparticipant \&quot;CenterInfoController\&quot; as Controller\nparticipant \&quot;CenterInfoForm\&quot; as Form\nparticipant \&quot;CenterInfoFormValidatorImpl\&quot; as Validator\nparticipant \&quot;CenterInfoService\&quot; as Service\nparticipant \&quot;CenterInfoRepository\&quot; as Repository\nparticipant \&quot;在庫センター情報テーブル\&quot; as DB\n\nalt 同期処理（画面遷移）\n    User -&gt; Controller: GET /admin/centerInfo/edit?id=xxx\n    Controller --&gt; User: return /admin/centerInfo/edit\n\n    User -&gt; Controller: POST /admin/centerInfo/edit\n    Controller -&gt; Form: 入力バインド\n    Form -&gt; Validator: validate()\n\n    alt 入力エラーあり\n        Validator --&gt; Form: エラーメッセージ設定\n        Form --&gt; Controller: エラーメッセージ送信\n        Controller --&gt; User: エラーメッセージ表示\n        Controller --&gt; User: return /admin/centerInfo/edit\n    else 正常処理\n        Controller -&gt; Service: updateCenterInfoData(form)\n\n        note over Service, Repository: トランザクション制御：@Transactional により例外発生時はロールバック\n        critical トランザクション\n            note over Repository, DB: 排他制御：@Version による楽観ロックを適用（バージョン不一致時は更新中止）\n            Service -&gt; Repository: updateCenterInfo(form)\n            Repository -&gt; DB: UPDATE center_info\n\n            alt 更新中にDBエラー発生\n                Service -&gt; DB: ロールバック\n            else 正常処理\n                Service -&gt; DB: コミット\n            end\n        end\n\n        alt DBエラー発生時\n            Service --&gt; Controller: エラーメッセージ送信\n            Controller --&gt; User: エラーメッセージ表示\n            Controller --&gt; User: redirect: /admin/centerInfo/edit\n        else 更新成功\n            Controller --&gt; User: addFlashAttribute()\n            Controller --&gt; User: redirect: /admin/centerInfo/index\n        end\n    end\nelse 非同期処理（Ajax）\n    User -&gt; Frontend: フォーム入力（編集）\n    Frontend -&gt; Frontend: 入力チェック（リアルタイム）\n    alt 入力不正\n        Frontend --&gt; User: 入力エラー表示\n    else 入力正常\n        User -&gt; Frontend: 更新ボタン押下\n        Frontend -&gt; Controller: Ajax PUT /admin/centerInfo/update\n        Controller -&gt; Service: updateCenterInfoData(form)\n\n        note over Service, Repository: トランザクション制御：@Transactional により例外発生時はロールバック\n        note over Repository, DB: 排他制御：@Version による楽観ロックを適用（バージョン不一致時は更新中止）\n        Service -&gt; Repository: updateCenterInfo(form)\n        Repository -&gt; DB: UPDATE center_info\n        DB --&gt; Repository: 成功\n        Repository --&gt; Service: 成功\n        Service --&gt; Controller: 成功\n\n        alt HTTP 200 OK\n            Controller --&gt; Frontend: 更新成功レスポンス\n            Frontend --&gt; User: ポップアップ「更新完了」\n        else HTTP 400（バリデーションエラー）\n            Controller --&gt; Frontend: エラー詳細\n            Frontend --&gt; User: 入力エラー表示\n        else HTTP 500（サーバーエラー）\n            Controller --&gt; Frontend: サーバー内部エラー\n            Frontend --&gt; User: サーバーエラー表示\n        end\n\n        alt 通信失敗\n            Frontend -&gt; Frontend: catch(error)\n            Frontend --&gt; User: 通信失敗エラー表示\n        end\n    end\nend\n@enduml&quot;,&quot;format&quot;:&quot;svg&quot;}" id="LPhEX43rcYUUOAoFwwuI-1">
          <mxCell style="shape=image;noLabel=1;verticalAlign=top;aspect=fixed;imageAspect=0;image=data:image/svg+xml,PHN2ZyB4bWxucz0iaHR0cDovL3d3dy53My5vcmcvMjAwMC9zdmciIHhtbG5zOnhsaW5rPSJodHRwOi8vd3d3LnczLm9yZy8xOTk5L3hsaW5rIiBjb250ZW50U3R5bGVUeXBlPSJ0ZXh0L2NzcyIgZGF0YS1kaWFncmFtLXR5cGU9IlNFUVVFTkNFIiBoZWlnaHQ9IjE2NDdweCIgcHJlc2VydmVBc3BlY3RSYXRpbz0ibm9uZSIgc3R5bGU9IndpZHRoOjE0ODhweDtoZWlnaHQ6MTY0N3B4O2JhY2tncm91bmQ6I0ZGRkZGRjsiIHZlcnNpb249IjEuMSIgdmlld0JveD0iMCAwIDE0ODggMTY0NyIgd2lkdGg9IjE0ODhweCIgem9vbUFuZFBhbj0ibWFnbmlmeSI+PGRlZnMvPjxnPjxyZWN0IGZpbGw9Im5vbmUiIGhlaWdodD0iMTU0NC4xMTcyIiBzdHlsZT0ic3Ryb2tlOiMwMDAwMDA7c3Ryb2tlLXdpZHRoOjEuNTsiIHdpZHRoPSIxNDcxIiB4PSIxMCIgeT0iNTEuOTg0NCIvPjxyZWN0IGZpbGw9Im5vbmUiIGhlaWdodD0iNjA1LjYwMTYiIHN0eWxlPSJzdHJva2U6IzAwMDAwMDtzdHJva2Utd2lkdGg6MS41OyIgd2lkdGg9IjEzMDIuNSIgeD0iMjAiIHk9IjIxNC40Njg4Ii8+PHJlY3QgZmlsbD0ibm9uZSIgaGVpZ2h0PSIyMDUuMTcxOSIgc3R5bGU9InN0cm9rZTojMDAwMDAwO3N0cm9rZS13aWR0aDoxLjU7IiB3aWR0aD0iNjAwIiB4PSI3MTIuNSIgeT0iNDI0LjY0MDYiLz48cmVjdCBmaWxsPSJub25lIiBoZWlnaHQ9Ijg1LjUxNTYiIHN0eWxlPSJzdHJva2U6IzAwMDAwMDtzdHJva2Utd2lkdGg6MS41OyIgd2lkdGg9IjUyMi41IiB4PSI3MjIuNSIgeT0iNTM3LjI5NjkiLz48cmVjdCBmaWxsPSJub25lIiBoZWlnaHQ9IjE2OS4yNTc4IiBzdHlsZT0ic3Ryb2tlOiMwMDAwMDA7c3Ryb2tlLXdpZHRoOjEuNTsiIHdpZHRoPSI4NDUuNSIgeD0iMzAiIHk9IjY0My44MTI1Ii8+PHJlY3QgZmlsbD0ibm9uZSIgaGVpZ2h0PSI2NzIuNDI5NyIgc3R5bGU9InN0cm9rZTojMDAwMDAwO3N0cm9rZS13aWR0aDoxLjU7IiB3aWR0aD0iMTM2NyIgeD0iMjAiIHk9IjkxNi42NzE5Ii8+PHJlY3QgZmlsbD0ibm9uZSIgaGVpZ2h0PSIyMTAuOTQ1MyIgc3R5bGU9InN0cm9rZTojMDAwMDAwO3N0cm9rZS13aWR0aDoxLjU7IiB3aWR0aD0iMTI5NSIgeD0iMzAiIHk9IjEyNzIuNDE0MSIvPjxyZWN0IGZpbGw9Im5vbmUiIGhlaWdodD0iODQuNzQyMiIgc3R5bGU9InN0cm9rZTojMDAwMDAwO3N0cm9rZS13aWR0aDoxLjU7IiB3aWR0aD0iMTM0NyIgeD0iMzAiIHk9IjE0OTcuMzU5NCIvPjxnPjx0aXRsZT5Vc2VyPC90aXRsZT48cmVjdCBmaWxsPSIjMDAwMDAwIiBmaWxsLW9wYWNpdHk9IjAuMDAwMDAiIGhlaWdodD0iMTU3OC4xMTcyIiB3aWR0aD0iOCIgeD0iNTciIHk9IjM0Ljk4NDQiLz48bGluZSBzdHlsZT0ic3Ryb2tlOiMxODE4MTg7c3Ryb2tlLXdpZHRoOjAuNTtzdHJva2UtZGFzaGFycmF5OjUuMCw1LjA7IiB4MT0iNjEiIHgyPSI2MSIgeTE9IjM0Ljk4NDQiIHkyPSIxNjEzLjEwMTYiLz48L2c+PGc+PHRpdGxlPkNlbnRlckluZm9Db250cm9sbGVyPC90aXRsZT48cmVjdCBmaWxsPSIjMDAwMDAwIiBmaWxsLW9wYWNpdHk9IjAuMDAwMDAiIGhlaWdodD0iMTU3OC4xMTcyIiB3aWR0aD0iOCIgeD0iMjk1LjUiIHk9IjM0Ljk4NDQiLz48bGluZSBzdHlsZT0ic3Ryb2tlOiMxODE4MTg7c3Ryb2tlLXdpZHRoOjAuNTtzdHJva2UtZGFzaGFycmF5OjUuMCw1LjA7IiB4MT0iMjk5LjUiIHgyPSIyOTkuNSIgeTE9IjM0Ljk4NDQiIHkyPSIxNjEzLjEwMTYiLz48L2c+PGc+PHRpdGxlPkNlbnRlckluZm9Gb3JtPC90aXRsZT48cmVjdCBmaWxsPSIjMDAwMDAwIiBmaWxsLW9wYWNpdHk9IjAuMDAwMDAiIGhlaWdodD0iMTU3OC4xMTcyIiB3aWR0aD0iOCIgeD0iNDQ5LjUiIHk9IjM0Ljk4NDQiLz48bGluZSBzdHlsZT0ic3Ryb2tlOiMxODE4MTg7c3Ryb2tlLXdpZHRoOjAuNTtzdHJva2UtZGFzaGFycmF5OjUuMCw1LjA7IiB4MT0iNDUzLjUiIHgyPSI0NTMuNSIgeTE9IjM0Ljk4NDQiIHkyPSIxNjEzLjEwMTYiLz48L2c+PGc+PHRpdGxlPkNlbnRlckluZm9Gb3JtVmFsaWRhdG9ySW1wbDwvdGl0bGU+PHJlY3QgZmlsbD0iIzAwMDAwMCIgZmlsbC1vcGFjaXR5PSIwLjAwMDAwIiBoZWlnaHQ9IjE1NzguMTE3MiIgd2lkdGg9IjgiIHg9IjYxNyIgeT0iMzQuOTg0NCIvPjxsaW5lIHN0eWxlPSJzdHJva2U6IzE4MTgxODtzdHJva2Utd2lkdGg6MC41O3N0cm9rZS1kYXNoYXJyYXk6NS4wLDUuMDsiIHgxPSI2MjAuNSIgeDI9IjYyMC41IiB5MT0iMzQuOTg0NCIgeTI9IjE2MTMuMTAxNiIvPjwvZz48Zz48dGl0bGU+Q2VudGVySW5mb1NlcnZpY2U8L3RpdGxlPjxyZWN0IGZpbGw9IiMwMDAwMDAiIGZpbGwtb3BhY2l0eT0iMC4wMDAwMCIgaGVpZ2h0PSIxNTc4LjExNzIiIHdpZHRoPSI4IiB4PSI3OTUiIHk9IjM0Ljk4NDQiLz48bGluZSBzdHlsZT0ic3Ryb2tlOiMxODE4MTg7c3Ryb2tlLXdpZHRoOjAuNTtzdHJva2UtZGFzaGFycmF5OjUuMCw1LjA7IiB4MT0iNzk4LjUiIHgyPSI3OTguNSIgeTE9IjM0Ljk4NDQiIHkyPSIxNjEzLjEwMTYiLz48L2c+PGc+PHRpdGxlPkNlbnRlckluZm9SZXBvc2l0b3J5PC90aXRsZT48cmVjdCBmaWxsPSIjMDAwMDAwIiBmaWxsLW9wYWNpdHk9IjAuMDAwMDAiIGhlaWdodD0iMTU3OC4xMTcyIiB3aWR0aD0iOCIgeD0iOTYyIiB5PSIzNC45ODQ0Ii8+PGxpbmUgc3R5bGU9InN0cm9rZTojMTgxODE4O3N0cm9rZS13aWR0aDowLjU7c3Ryb2tlLWRhc2hhcnJheTo1LjAsNS4wOyIgeDE9Ijk2NiIgeDI9Ijk2NiIgeTE9IjM0Ljk4NDQiIHkyPSIxNjEzLjEwMTYiLz48L2c+PGc+PHRpdGxlPiYjMjIzMTI7JiMyNDIzNTsmIzEyNDc1OyYjMTI1MzE7JiMxMjQ3OTsmIzEyNTQwOyYjMjQ3NzM7JiMyMjU3NzsmIzEyNDg2OyYjMTI1NDA7JiMxMjUwMjsmIzEyNTIzOzwvdGl0bGU+PHJlY3QgZmlsbD0iIzAwMDAwMCIgZmlsbC1vcGFjaXR5PSIwLjAwMDAwIiBoZWlnaHQ9IjE1NzguMTE3MiIgd2lkdGg9IjgiIHg9IjExNDAiIHk9IjM0Ljk4NDQiLz48bGluZSBzdHlsZT0ic3Ryb2tlOiMxODE4MTg7c3Ryb2tlLXdpZHRoOjAuNTtzdHJva2UtZGFzaGFycmF5OjUuMCw1LjA7IiB4MT0iMTE0NCIgeDI9IjExNDQiIHkxPSIzNC45ODQ0IiB5Mj0iMTYxMy4xMDE2Ii8+PC9nPjxnPjx0aXRsZT5Gcm9udGVuZDwvdGl0bGU+PHJlY3QgZmlsbD0iIzAwMDAwMCIgZmlsbC1vcGFjaXR5PSIwLjAwMDAwIiBoZWlnaHQ9IjE1NzguMTE3MiIgd2lkdGg9IjgiIHg9IjEyNzYiIHk9IjM0Ljk4NDQiLz48bGluZSBzdHlsZT0ic3Ryb2tlOiMxODE4MTg7c3Ryb2tlLXdpZHRoOjAuNTtzdHJva2UtZGFzaGFycmF5OjUuMCw1LjA7IiB4MT0iMTI4MCIgeDI9IjEyODAiIHkxPSIzNC45ODQ0IiB5Mj0iMTYxMy4xMDE2Ii8+PC9nPjxnIGNsYXNzPSJwYXJ0aWNpcGFudCBwYXJ0aWNpcGFudC1oZWFkIiBkYXRhLXBhcnRpY2lwYW50PSJVc2VyIj48cmVjdCBmaWxsPSIjRTJFMkYwIiBoZWlnaHQ9IjI4Ljk4NDQiIHJ4PSIyLjUiIHJ5PSIyLjUiIHN0eWxlPSJzdHJva2U6IzE4MTgxODtzdHJva2Utd2lkdGg6MC41OyIgd2lkdGg9IjQyIiB4PSI0MCIgeT0iNSIvPjx0ZXh0IGZpbGw9IiMwMDAwMDAiIGZvbnQtZmFtaWx5PSJzYW5zLXNlcmlmIiBmb250LXNpemU9IjE0IiBsZW5ndGhBZGp1c3Q9InNwYWNpbmciIHRleHRMZW5ndGg9IjI4IiB4PSI0NyIgeT0iMjUuMjM0NCI+VXNlcjwvdGV4dD48L2c+PGcgY2xhc3M9InBhcnRpY2lwYW50IHBhcnRpY2lwYW50LXRhaWwiIGRhdGEtcGFydGljaXBhbnQ9IlVzZXIiPjxyZWN0IGZpbGw9IiNFMkUyRjAiIGhlaWdodD0iMjguOTg0NCIgcng9IjIuNSIgcnk9IjIuNSIgc3R5bGU9InN0cm9rZTojMTgxODE4O3N0cm9rZS13aWR0aDowLjU7IiB3aWR0aD0iNDIiIHg9IjQwIiB5PSIxNjEyLjEwMTYiLz48dGV4dCBmaWxsPSIjMDAwMDAwIiBmb250LWZhbWlseT0ic2Fucy1zZXJpZiIgZm9udC1zaXplPSIxNCIgbGVuZ3RoQWRqdXN0PSJzcGFjaW5nIiB0ZXh0TGVuZ3RoPSIyOCIgeD0iNDciIHk9IjE2MzIuMzM1OSI+VXNlcjwvdGV4dD48L2c+PGcgY2xhc3M9InBhcnRpY2lwYW50IHBhcnRpY2lwYW50LWhlYWQiIGRhdGEtcGFydGljaXBhbnQ9IkNvbnRyb2xsZXIiPjxyZWN0IGZpbGw9IiNFMkUyRjAiIGhlaWdodD0iMjguOTg0NCIgcng9IjIuNSIgcnk9IjIuNSIgc3R5bGU9InN0cm9rZTojMTgxODE4O3N0cm9rZS13aWR0aDowLjU7IiB3aWR0aD0iMTU0IiB4PSIyMjIuNSIgeT0iNSIvPjx0ZXh0IGZpbGw9IiMwMDAwMDAiIGZvbnQtZmFtaWx5PSJzYW5zLXNlcmlmIiBmb250LXNpemU9IjE0IiBsZW5ndGhBZGp1c3Q9InNwYWNpbmciIHRleHRMZW5ndGg9IjE0MCIgeD0iMjI5LjUiIHk9IjI1LjIzNDQiPkNlbnRlckluZm9Db250cm9sbGVyPC90ZXh0PjwvZz48ZyBjbGFzcz0icGFydGljaXBhbnQgcGFydGljaXBhbnQtdGFpbCIgZGF0YS1wYXJ0aWNpcGFudD0iQ29udHJvbGxlciI+PHJlY3QgZmlsbD0iI0UyRTJGMCIgaGVpZ2h0PSIyOC45ODQ0IiByeD0iMi41IiByeT0iMi41IiBzdHlsZT0ic3Ryb2tlOiMxODE4MTg7c3Ryb2tlLXdpZHRoOjAuNTsiIHdpZHRoPSIxNTQiIHg9IjIyMi41IiB5PSIxNjEyLjEwMTYiLz48dGV4dCBmaWxsPSIjMDAwMDAwIiBmb250LWZhbWlseT0ic2Fucy1zZXJpZiIgZm9udC1zaXplPSIxNCIgbGVuZ3RoQWRqdXN0PSJzcGFjaW5nIiB0ZXh0TGVuZ3RoPSIxNDAiIHg9IjIyOS41IiB5PSIxNjMyLjMzNTkiPkNlbnRlckluZm9Db250cm9sbGVyPC90ZXh0PjwvZz48ZyBjbGFzcz0icGFydGljaXBhbnQgcGFydGljaXBhbnQtaGVhZCIgZGF0YS1wYXJ0aWNpcGFudD0iRm9ybSI+PHJlY3QgZmlsbD0iI0UyRTJGMCIgaGVpZ2h0PSIyOC45ODQ0IiByeD0iMi41IiByeT0iMi41IiBzdHlsZT0ic3Ryb2tlOiMxODE4MTg7c3Ryb2tlLXdpZHRoOjAuNTsiIHdpZHRoPSIxMTIiIHg9IjM5Ny41IiB5PSI1Ii8+PHRleHQgZmlsbD0iIzAwMDAwMCIgZm9udC1mYW1pbHk9InNhbnMtc2VyaWYiIGZvbnQtc2l6ZT0iMTQiIGxlbmd0aEFkanVzdD0ic3BhY2luZyIgdGV4dExlbmd0aD0iOTgiIHg9IjQwNC41IiB5PSIyNS4yMzQ0Ij5DZW50ZXJJbmZvRm9ybTwvdGV4dD48L2c+PGcgY2xhc3M9InBhcnRpY2lwYW50IHBhcnRpY2lwYW50LXRhaWwiIGRhdGEtcGFydGljaXBhbnQ9IkZvcm0iPjxyZWN0IGZpbGw9IiNFMkUyRjAiIGhlaWdodD0iMjguOTg0NCIgcng9IjIuNSIgcnk9IjIuNSIgc3R5bGU9InN0cm9rZTojMTgxODE4O3N0cm9rZS13aWR0aDowLjU7IiB3aWR0aD0iMTEyIiB4PSIzOTcuNSIgeT0iMTYxMi4xMDE2Ii8+PHRleHQgZmlsbD0iIzAwMDAwMCIgZm9udC1mYW1pbHk9InNhbnMtc2VyaWYiIGZvbnQtc2l6ZT0iMTQiIGxlbmd0aEFkanVzdD0ic3BhY2luZyIgdGV4dExlbmd0aD0iOTgiIHg9IjQwNC41IiB5PSIxNjMyLjMzNTkiPkNlbnRlckluZm9Gb3JtPC90ZXh0PjwvZz48ZyBjbGFzcz0icGFydGljaXBhbnQgcGFydGljaXBhbnQtaGVhZCIgZGF0YS1wYXJ0aWNpcGFudD0iVmFsaWRhdG9yIj48cmVjdCBmaWxsPSIjRTJFMkYwIiBoZWlnaHQ9IjI4Ljk4NDQiIHJ4PSIyLjUiIHJ5PSIyLjUiIHN0eWxlPSJzdHJva2U6IzE4MTgxODtzdHJva2Utd2lkdGg6MC41OyIgd2lkdGg9IjIwMyIgeD0iNTE5LjUiIHk9IjUiLz48dGV4dCBmaWxsPSIjMDAwMDAwIiBmb250LWZhbWlseT0ic2Fucy1zZXJpZiIgZm9udC1zaXplPSIxNCIgbGVuZ3RoQWRqdXN0PSJzcGFjaW5nIiB0ZXh0TGVuZ3RoPSIxODkiIHg9IjUyNi41IiB5PSIyNS4yMzQ0Ij5DZW50ZXJJbmZvRm9ybVZhbGlkYXRvckltcGw8L3RleHQ+PC9nPjxnIGNsYXNzPSJwYXJ0aWNpcGFudCBwYXJ0aWNpcGFudC10YWlsIiBkYXRhLXBhcnRpY2lwYW50PSJWYWxpZGF0b3IiPjxyZWN0IGZpbGw9IiNFMkUyRjAiIGhlaWdodD0iMjguOTg0NCIgcng9IjIuNSIgcnk9IjIuNSIgc3R5bGU9InN0cm9rZTojMTgxODE4O3N0cm9rZS13aWR0aDowLjU7IiB3aWR0aD0iMjAzIiB4PSI1MTkuNSIgeT0iMTYxMi4xMDE2Ii8+PHRleHQgZmlsbD0iIzAwMDAwMCIgZm9udC1mYW1pbHk9InNhbnMtc2VyaWYiIGZvbnQtc2l6ZT0iMTQiIGxlbmd0aEFkanVzdD0ic3BhY2luZyIgdGV4dExlbmd0aD0iMTg5IiB4PSI1MjYuNSIgeT0iMTYzMi4zMzU5Ij5DZW50ZXJJbmZvRm9ybVZhbGlkYXRvckltcGw8L3RleHQ+PC9nPjxnIGNsYXNzPSJwYXJ0aWNpcGFudCBwYXJ0aWNpcGFudC1oZWFkIiBkYXRhLXBhcnRpY2lwYW50PSJTZXJ2aWNlIj48cmVjdCBmaWxsPSIjRTJFMkYwIiBoZWlnaHQ9IjI4Ljk4NDQiIHJ4PSIyLjUiIHJ5PSIyLjUiIHN0eWxlPSJzdHJva2U6IzE4MTgxODtzdHJva2Utd2lkdGg6MC41OyIgd2lkdGg9IjEzMyIgeD0iNzMyLjUiIHk9IjUiLz48dGV4dCBmaWxsPSIjMDAwMDAwIiBmb250LWZhbWlseT0ic2Fucy1zZXJpZiIgZm9udC1zaXplPSIxNCIgbGVuZ3RoQWRqdXN0PSJzcGFjaW5nIiB0ZXh0TGVuZ3RoPSIxMTkiIHg9IjczOS41IiB5PSIyNS4yMzQ0Ij5DZW50ZXJJbmZvU2VydmljZTwvdGV4dD48L2c+PGcgY2xhc3M9InBhcnRpY2lwYW50IHBhcnRpY2lwYW50LXRhaWwiIGRhdGEtcGFydGljaXBhbnQ9IlNlcnZpY2UiPjxyZWN0IGZpbGw9IiNFMkUyRjAiIGhlaWdodD0iMjguOTg0NCIgcng9IjIuNSIgcnk9IjIuNSIgc3R5bGU9InN0cm9rZTojMTgxODE4O3N0cm9rZS13aWR0aDowLjU7IiB3aWR0aD0iMTMzIiB4PSI3MzIuNSIgeT0iMTYxMi4xMDE2Ii8+PHRleHQgZmlsbD0iIzAwMDAwMCIgZm9udC1mYW1pbHk9InNhbnMtc2VyaWYiIGZvbnQtc2l6ZT0iMTQiIGxlbmd0aEFkanVzdD0ic3BhY2luZyIgdGV4dExlbmd0aD0iMTE5IiB4PSI3MzkuNSIgeT0iMTYzMi4zMzU5Ij5DZW50ZXJJbmZvU2VydmljZTwvdGV4dD48L2c+PGcgY2xhc3M9InBhcnRpY2lwYW50IHBhcnRpY2lwYW50LWhlYWQiIGRhdGEtcGFydGljaXBhbnQ9IlJlcG9zaXRvcnkiPjxyZWN0IGZpbGw9IiNFMkUyRjAiIGhlaWdodD0iMjguOTg0NCIgcng9IjIuNSIgcnk9IjIuNSIgc3R5bGU9InN0cm9rZTojMTgxODE4O3N0cm9rZS13aWR0aDowLjU7IiB3aWR0aD0iMTU0IiB4PSI4ODkiIHk9IjUiLz48dGV4dCBmaWxsPSIjMDAwMDAwIiBmb250LWZhbWlseT0ic2Fucy1zZXJpZiIgZm9udC1zaXplPSIxNCIgbGVuZ3RoQWRqdXN0PSJzcGFjaW5nIiB0ZXh0TGVuZ3RoPSIxNDAiIHg9Ijg5NiIgeT0iMjUuMjM0NCI+Q2VudGVySW5mb1JlcG9zaXRvcnk8L3RleHQ+PC9nPjxnIGNsYXNzPSJwYXJ0aWNpcGFudCBwYXJ0aWNpcGFudC10YWlsIiBkYXRhLXBhcnRpY2lwYW50PSJSZXBvc2l0b3J5Ij48cmVjdCBmaWxsPSIjRTJFMkYwIiBoZWlnaHQ9IjI4Ljk4NDQiIHJ4PSIyLjUiIHJ5PSIyLjUiIHN0eWxlPSJzdHJva2U6IzE4MTgxODtzdHJva2Utd2lkdGg6MC41OyIgd2lkdGg9IjE1NCIgeD0iODg5IiB5PSIxNjEyLjEwMTYiLz48dGV4dCBmaWxsPSIjMDAwMDAwIiBmb250LWZhbWlseT0ic2Fucy1zZXJpZiIgZm9udC1zaXplPSIxNCIgbGVuZ3RoQWRqdXN0PSJzcGFjaW5nIiB0ZXh0TGVuZ3RoPSIxNDAiIHg9Ijg5NiIgeT0iMTYzMi4zMzU5Ij5DZW50ZXJJbmZvUmVwb3NpdG9yeTwvdGV4dD48L2c+PGcgY2xhc3M9InBhcnRpY2lwYW50IHBhcnRpY2lwYW50LWhlYWQiIGRhdGEtcGFydGljaXBhbnQ9IkRCIj48cmVjdCBmaWxsPSIjRTJFMkYwIiBoZWlnaHQ9IjI4Ljk4NDQiIHJ4PSIyLjUiIHJ5PSIyLjUiIHN0eWxlPSJzdHJva2U6IzE4MTgxODtzdHJva2Utd2lkdGg6MC41OyIgd2lkdGg9IjE4MiIgeD0iMTA1MyIgeT0iNSIvPjx0ZXh0IGZpbGw9IiMwMDAwMDAiIGZvbnQtZmFtaWx5PSJzYW5zLXNlcmlmIiBmb250LXNpemU9IjE0IiBsZW5ndGhBZGp1c3Q9InNwYWNpbmciIHRleHRMZW5ndGg9IjE2OCIgeD0iMTA2MCIgeT0iMjUuMjM0NCI+JiMyMjMxMjsmIzI0MjM1OyYjMTI0NzU7JiMxMjUzMTsmIzEyNDc5OyYjMTI1NDA7JiMyNDc3MzsmIzIyNTc3OyYjMTI0ODY7JiMxMjU0MDsmIzEyNTAyOyYjMTI1MjM7PC90ZXh0PjwvZz48ZyBjbGFzcz0icGFydGljaXBhbnQgcGFydGljaXBhbnQtdGFpbCIgZGF0YS1wYXJ0aWNpcGFudD0iREIiPjxyZWN0IGZpbGw9IiNFMkUyRjAiIGhlaWdodD0iMjguOTg0NCIgcng9IjIuNSIgcnk9IjIuNSIgc3R5bGU9InN0cm9rZTojMTgxODE4O3N0cm9rZS13aWR0aDowLjU7IiB3aWR0aD0iMTgyIiB4PSIxMDUzIiB5PSIxNjEyLjEwMTYiLz48dGV4dCBmaWxsPSIjMDAwMDAwIiBmb250LWZhbWlseT0ic2Fucy1zZXJpZiIgZm9udC1zaXplPSIxNCIgbGVuZ3RoQWRqdXN0PSJzcGFjaW5nIiB0ZXh0TGVuZ3RoPSIxNjgiIHg9IjEwNjAiIHk9IjE2MzIuMzM1OSI+JiMyMjMxMjsmIzI0MjM1OyYjMTI0NzU7JiMxMjUzMTsmIzEyNDc5OyYjMTI1NDA7JiMyNDc3MzsmIzIyNTc3OyYjMTI0ODY7JiMxMjU0MDsmIzEyNTAyOyYjMTI1MjM7PC90ZXh0PjwvZz48ZyBjbGFzcz0icGFydGljaXBhbnQgcGFydGljaXBhbnQtaGVhZCIgZGF0YS1wYXJ0aWNpcGFudD0iRnJvbnRlbmQiPjxyZWN0IGZpbGw9IiNFMkUyRjAiIGhlaWdodD0iMjguOTg0NCIgcng9IjIuNSIgcnk9IjIuNSIgc3R5bGU9InN0cm9rZTojMTgxODE4O3N0cm9rZS13aWR0aDowLjU7IiB3aWR0aD0iNzAiIHg9IjEyNDUiIHk9IjUiLz48dGV4dCBmaWxsPSIjMDAwMDAwIiBmb250LWZhbWlseT0ic2Fucy1zZXJpZiIgZm9udC1zaXplPSIxNCIgbGVuZ3RoQWRqdXN0PSJzcGFjaW5nIiB0ZXh0TGVuZ3RoPSI1NiIgeD0iMTI1MiIgeT0iMjUuMjM0NCI+RnJvbnRlbmQ8L3RleHQ+PC9nPjxnIGNsYXNzPSJwYXJ0aWNpcGFudCBwYXJ0aWNpcGFudC10YWlsIiBkYXRhLXBhcnRpY2lwYW50PSJGcm9udGVuZCI+PHJlY3QgZmlsbD0iI0UyRTJGMCIgaGVpZ2h0PSIyOC45ODQ0IiByeD0iMi41IiByeT0iMi41IiBzdHlsZT0ic3Ryb2tlOiMxODE4MTg7c3Ryb2tlLXdpZHRoOjAuNTsiIHdpZHRoPSI3MCIgeD0iMTI0NSIgeT0iMTYxMi4xMDE2Ii8+PHRleHQgZmlsbD0iIzAwMDAwMCIgZm9udC1mYW1pbHk9InNhbnMtc2VyaWYiIGZvbnQtc2l6ZT0iMTQiIGxlbmd0aEFkanVzdD0ic3BhY2luZyIgdGV4dExlbmd0aD0iNTYiIHg9IjEyNTIiIHk9IjE2MzIuMzM1OSI+RnJvbnRlbmQ8L3RleHQ+PC9nPjxwYXRoIGQ9Ik0xMCw1MS45ODQ0IEw3NC41LDUxLjk4NDQgTDc0LjUsNTcuODk4NCBMNjQuNSw2Ny44OTg0IEwxMCw2Ny44OTg0IEwxMCw1MS45ODQ0IiBmaWxsPSIjRUVFRUVFIiBzdHlsZT0ic3Ryb2tlOiMwMDAwMDA7c3Ryb2tlLXdpZHRoOjEuNTsiLz48cmVjdCBmaWxsPSJub25lIiBoZWlnaHQ9IjE1NDQuMTE3MiIgc3R5bGU9InN0cm9rZTojMDAwMDAwO3N0cm9rZS13aWR0aDoxLjU7IiB3aWR0aD0iMTQ3MSIgeD0iMTAiIHk9IjUxLjk4NDQiLz48dGV4dCBmaWxsPSIjMDAwMDAwIiBmb250LWZhbWlseT0ic2Fucy1zZXJpZiIgZm9udC1zaXplPSIxMyIgZm9udC13ZWlnaHQ9ImJvbGQiIGxlbmd0aEFkanVzdD0ic3BhY2luZyIgdGV4dExlbmd0aD0iMTkuNSIgeD0iMjUiIHk9IjY1LjI3MzQiPmFsdDwvdGV4dD48dGV4dCBmaWxsPSIjMDAwMDAwIiBmb250LWZhbWlseT0ic2Fucy1zZXJpZiIgZm9udC1zaXplPSIxMSIgZm9udC13ZWlnaHQ9ImJvbGQiIGxlbmd0aEFkanVzdD0ic3BhY2luZyIgdGV4dExlbmd0aD0iMTIxIiB4PSI4OS41IiB5PSI2NC4zODI4Ij5bJiMyMTUxNjsmIzI2Mzk5OyYjMjA5NjY7JiMyOTcwMjsmIzY1Mjg4OyYjMzAwMTE7JiMzODc1NDsmIzM2OTgzOyYjMzEyMjc7JiM2NTI4OTtdPC90ZXh0PjxnIGNsYXNzPSJtZXNzYWdlIiBkYXRhLXBhcnRpY2lwYW50LTE9IlVzZXIiIGRhdGEtcGFydGljaXBhbnQtMj0iQ29udHJvbGxlciI+PHBvbHlnb24gZmlsbD0iIzE4MTgxOCIgcG9pbnRzPSIyODcuNSw4My44MTI1LDI5Ny41LDg3LjgxMjUsMjg3LjUsOTEuODEyNSwyOTEuNSw4Ny44MTI1IiBzdHlsZT0ic3Ryb2tlOiMxODE4MTg7c3Ryb2tlLXdpZHRoOjE7Ii8+PGxpbmUgc3R5bGU9InN0cm9rZTojMTgxODE4O3N0cm9rZS13aWR0aDoxOyIgeDE9IjYxIiB4Mj0iMjkzLjUiIHkxPSI4Ny44MTI1IiB5Mj0iODcuODEyNSIvPjx0ZXh0IGZpbGw9IiMwMDAwMDAiIGZvbnQtZmFtaWx5PSJzYW5zLXNlcmlmIiBmb250LXNpemU9IjEzIiBsZW5ndGhBZGp1c3Q9InNwYWNpbmciIHRleHRMZW5ndGg9IjIxNC41IiB4PSI2OCIgeT0iODQuMTg3NSI+R0VUIC9hZG1pbi9jZW50ZXJJbmZvL2VkaXQ/aWQ9eHh4PC90ZXh0PjwvZz48ZyBjbGFzcz0ibWVzc2FnZSIgZGF0YS1wYXJ0aWNpcGFudC0xPSJDb250cm9sbGVyIiBkYXRhLXBhcnRpY2lwYW50LTI9IlVzZXIiPjxwb2x5Z29uIGZpbGw9IiMxODE4MTgiIHBvaW50cz0iNzIsMTExLjcyNjYsNjIsMTE1LjcyNjYsNzIsMTE5LjcyNjYsNjgsMTE1LjcyNjYiIHN0eWxlPSJzdHJva2U6IzE4MTgxODtzdHJva2Utd2lkdGg6MTsiLz48bGluZSBzdHlsZT0ic3Ryb2tlOiMxODE4MTg7c3Ryb2tlLXdpZHRoOjE7c3Ryb2tlLWRhc2hhcnJheToyLjAsMi4wOyIgeDE9IjY2IiB4Mj0iMjk4LjUiIHkxPSIxMTUuNzI2NiIgeTI9IjExNS43MjY2Ii8+PHRleHQgZmlsbD0iIzAwMDAwMCIgZm9udC1mYW1pbHk9InNhbnMtc2VyaWYiIGZvbnQtc2l6ZT0iMTMiIGxlbmd0aEFkanVzdD0ic3BhY2luZyIgdGV4dExlbmd0aD0iMTg4LjUiIHg9Ijc4IiB5PSIxMTIuMTAxNiI+cmV0dXJuIC9hZG1pbi9jZW50ZXJJbmZvL2VkaXQ8L3RleHQ+PC9nPjxnIGNsYXNzPSJtZXNzYWdlIiBkYXRhLXBhcnRpY2lwYW50LTE9IlVzZXIiIGRhdGEtcGFydGljaXBhbnQtMj0iQ29udHJvbGxlciI+PHBvbHlnb24gZmlsbD0iIzE4MTgxOCIgcG9pbnRzPSIyODcuNSwxMzkuNjQwNiwyOTcuNSwxNDMuNjQwNiwyODcuNSwxNDcuNjQwNiwyOTEuNSwxNDMuNjQwNiIgc3R5bGU9InN0cm9rZTojMTgxODE4O3N0cm9rZS13aWR0aDoxOyIvPjxsaW5lIHN0eWxlPSJzdHJva2U6IzE4MTgxODtzdHJva2Utd2lkdGg6MTsiIHgxPSI2MSIgeDI9IjI5My41IiB5MT0iMTQzLjY0MDYiIHkyPSIxNDMuNjQwNiIvPjx0ZXh0IGZpbGw9IiMwMDAwMDAiIGZvbnQtZmFtaWx5PSJzYW5zLXNlcmlmIiBmb250LXNpemU9IjEzIiBsZW5ndGhBZGp1c3Q9InNwYWNpbmciIHRleHRMZW5ndGg9IjE3NS41IiB4PSI2OCIgeT0iMTQwLjAxNTYiPlBPU1QgL2FkbWluL2NlbnRlckluZm8vZWRpdDwvdGV4dD48L2c+PGcgY2xhc3M9Im1lc3NhZ2UiIGRhdGEtcGFydGljaXBhbnQtMT0iQ29udHJvbGxlciIgZGF0YS1wYXJ0aWNpcGFudC0yPSJGb3JtIj48cG9seWdvbiBmaWxsPSIjMTgxODE4IiBwb2ludHM9IjQ0MS41LDE2Ny41NTQ3LDQ1MS41LDE3MS41NTQ3LDQ0MS41LDE3NS41NTQ3LDQ0NS41LDE3MS41NTQ3IiBzdHlsZT0ic3Ryb2tlOiMxODE4MTg7c3Ryb2tlLXdpZHRoOjE7Ii8+PGxpbmUgc3R5bGU9InN0cm9rZTojMTgxODE4O3N0cm9rZS13aWR0aDoxOyIgeDE9IjI5OS41IiB4Mj0iNDQ3LjUiIHkxPSIxNzEuNTU0NyIgeTI9IjE3MS41NTQ3Ii8+PHRleHQgZmlsbD0iIzAwMDAwMCIgZm9udC1mYW1pbHk9InNhbnMtc2VyaWYiIGZvbnQtc2l6ZT0iMTMiIGxlbmd0aEFkanVzdD0ic3BhY2luZyIgdGV4dExlbmd0aD0iNzgiIHg9IjMwNi41IiB5PSIxNjcuOTI5NyI+JiMyMDgzNzsmIzIxMTQ3OyYjMTI0OTY7JiMxMjQ1MjsmIzEyNTMxOyYjMTI0ODk7PC90ZXh0PjwvZz48ZyBjbGFzcz0ibWVzc2FnZSIgZGF0YS1wYXJ0aWNpcGFudC0xPSJGb3JtIiBkYXRhLXBhcnRpY2lwYW50LTI9IlZhbGlkYXRvciI+PHBvbHlnb24gZmlsbD0iIzE4MTgxOCIgcG9pbnRzPSI2MDksMTk1LjQ2ODgsNjE5LDE5OS40Njg4LDYwOSwyMDMuNDY4OCw2MTMsMTk5LjQ2ODgiIHN0eWxlPSJzdHJva2U6IzE4MTgxODtzdHJva2Utd2lkdGg6MTsiLz48bGluZSBzdHlsZT0ic3Ryb2tlOiMxODE4MTg7c3Ryb2tlLXdpZHRoOjE7IiB4MT0iNDUzLjUiIHgyPSI2MTUiIHkxPSIxOTkuNDY4OCIgeTI9IjE5OS40Njg4Ii8+PHRleHQgZmlsbD0iIzAwMDAwMCIgZm9udC1mYW1pbHk9InNhbnMtc2VyaWYiIGZvbnQtc2l6ZT0iMTMiIGxlbmd0aEFkanVzdD0ic3BhY2luZyIgdGV4dExlbmd0aD0iNjUiIHg9IjQ2MC41IiB5PSIxOTUuODQzOCI+dmFsaWRhdGUoKTwvdGV4dD48L2c+PHBhdGggZD0iTTIwLDIxNC40Njg4IEw4NC41LDIxNC40Njg4IEw4NC41LDIyMC4zODI4IEw3NC41LDIzMC4zODI4IEwyMCwyMzAuMzgyOCBMMjAsMjE0LjQ2ODgiIGZpbGw9IiNFRUVFRUUiIHN0eWxlPSJzdHJva2U6IzAwMDAwMDtzdHJva2Utd2lkdGg6MS41OyIvPjxyZWN0IGZpbGw9Im5vbmUiIGhlaWdodD0iNjA1LjYwMTYiIHN0eWxlPSJzdHJva2U6IzAwMDAwMDtzdHJva2Utd2lkdGg6MS41OyIgd2lkdGg9IjEzMDIuNSIgeD0iMjAiIHk9IjIxNC40Njg4Ii8+PHRleHQgZmlsbD0iIzAwMDAwMCIgZm9udC1mYW1pbHk9InNhbnMtc2VyaWYiIGZvbnQtc2l6ZT0iMTMiIGZvbnQtd2VpZ2h0PSJib2xkIiBsZW5ndGhBZGp1c3Q9InNwYWNpbmciIHRleHRMZW5ndGg9IjE5LjUiIHg9IjM1IiB5PSIyMjcuNzU3OCI+YWx0PC90ZXh0Pjx0ZXh0IGZpbGw9IiMwMDAwMDAiIGZvbnQtZmFtaWx5PSJzYW5zLXNlcmlmIiBmb250LXNpemU9IjExIiBmb250LXdlaWdodD0iYm9sZCIgbGVuZ3RoQWRqdXN0PSJzcGFjaW5nIiB0ZXh0TGVuZ3RoPSI4OCIgeD0iOTkuNSIgeT0iMjI2Ljg2NzIiPlsmIzIwODM3OyYjMjExNDc7JiMxMjQ1NjsmIzEyNTIxOyYjMTI1NDA7JiMxMjM1NDsmIzEyNDI2O108L3RleHQ+PGcgY2xhc3M9Im1lc3NhZ2UiIGRhdGEtcGFydGljaXBhbnQtMT0iVmFsaWRhdG9yIiBkYXRhLXBhcnRpY2lwYW50LTI9IkZvcm0iPjxwb2x5Z29uIGZpbGw9IiMxODE4MTgiIHBvaW50cz0iNDY0LjUsMjQ2LjI5NjksNDU0LjUsMjUwLjI5NjksNDY0LjUsMjU0LjI5NjksNDYwLjUsMjUwLjI5NjkiIHN0eWxlPSJzdHJva2U6IzE4MTgxODtzdHJva2Utd2lkdGg6MTsiLz48bGluZSBzdHlsZT0ic3Ryb2tlOiMxODE4MTg7c3Ryb2tlLXdpZHRoOjE7c3Ryb2tlLWRhc2hhcnJheToyLjAsMi4wOyIgeDE9IjQ1OC41IiB4Mj0iNjIwIiB5MT0iMjUwLjI5NjkiIHkyPSIyNTAuMjk2OSIvPjx0ZXh0IGZpbGw9IiMwMDAwMDAiIGZvbnQtZmFtaWx5PSJzYW5zLXNlcmlmIiBmb250LXNpemU9IjEzIiBsZW5ndGhBZGp1c3Q9InNwYWNpbmciIHRleHRMZW5ndGg9IjEzMCIgeD0iNDcwLjUiIHk9IjI0Ni42NzE5Ij4mIzEyNDU2OyYjMTI1MjE7JiMxMjU0MDsmIzEyNTEzOyYjMTI0ODM7JiMxMjQ3NTsmIzEyNTQwOyYjMTI0NzI7JiMzNTM3MzsmIzIzNDUwOzwvdGV4dD48L2c+PGcgY2xhc3M9Im1lc3NhZ2UiIGRhdGEtcGFydGljaXBhbnQtMT0iRm9ybSIgZGF0YS1wYXJ0aWNpcGFudC0yPSJDb250cm9sbGVyIj48cG9seWdvbiBmaWxsPSIjMTgxODE4IiBwb2ludHM9IjMxMC41LDI3NC4yMTA5LDMwMC41LDI3OC4yMTA5LDMxMC41LDI4Mi4yMTA5LDMwNi41LDI3OC4yMTA5IiBzdHlsZT0ic3Ryb2tlOiMxODE4MTg7c3Ryb2tlLXdpZHRoOjE7Ii8+PGxpbmUgc3R5bGU9InN0cm9rZTojMTgxODE4O3N0cm9rZS13aWR0aDoxO3N0cm9rZS1kYXNoYXJyYXk6Mi4wLDIuMDsiIHgxPSIzMDQuNSIgeDI9IjQ1Mi41IiB5MT0iMjc4LjIxMDkiIHkyPSIyNzguMjEwOSIvPjx0ZXh0IGZpbGw9IiMwMDAwMDAiIGZvbnQtZmFtaWx5PSJzYW5zLXNlcmlmIiBmb250LXNpemU9IjEzIiBsZW5ndGhBZGp1c3Q9InNwYWNpbmciIHRleHRMZW5ndGg9IjEzMCIgeD0iMzE2LjUiIHk9IjI3NC41ODU5Ij4mIzEyNDU2OyYjMTI1MjE7JiMxMjU0MDsmIzEyNTEzOyYjMTI0ODM7JiMxMjQ3NTsmIzEyNTQwOyYjMTI0NzI7JiMzNjg2NTsmIzIwNDQ5OzwvdGV4dD48L2c+PGcgY2xhc3M9Im1lc3NhZ2UiIGRhdGEtcGFydGljaXBhbnQtMT0iQ29udHJvbGxlciIgZGF0YS1wYXJ0aWNpcGFudC0yPSJVc2VyIj48cG9seWdvbiBmaWxsPSIjMTgxODE4IiBwb2ludHM9IjcyLDMwMi4xMjUsNjIsMzA2LjEyNSw3MiwzMTAuMTI1LDY4LDMwNi4xMjUiIHN0eWxlPSJzdHJva2U6IzE4MTgxODtzdHJva2Utd2lkdGg6MTsiLz48bGluZSBzdHlsZT0ic3Ryb2tlOiMxODE4MTg7c3Ryb2tlLXdpZHRoOjE7c3Ryb2tlLWRhc2hhcnJheToyLjAsMi4wOyIgeDE9IjY2IiB4Mj0iMjk4LjUiIHkxPSIzMDYuMTI1IiB5Mj0iMzA2LjEyNSIvPjx0ZXh0IGZpbGw9IiMwMDAwMDAiIGZvbnQtZmFtaWx5PSJzYW5zLXNlcmlmIiBmb250LXNpemU9IjEzIiBsZW5ndGhBZGp1c3Q9InNwYWNpbmciIHRleHRMZW5ndGg9IjEzMCIgeD0iNzgiIHk9IjMwMi41Ij4mIzEyNDU2OyYjMTI1MjE7JiMxMjU0MDsmIzEyNTEzOyYjMTI0ODM7JiMxMjQ3NTsmIzEyNTQwOyYjMTI0NzI7JiMzNDkyMDsmIzMxMDM0OzwvdGV4dD48L2c+PGcgY2xhc3M9Im1lc3NhZ2UiIGRhdGEtcGFydGljaXBhbnQtMT0iQ29udHJvbGxlciIgZGF0YS1wYXJ0aWNpcGFudC0yPSJVc2VyIj48cG9seWdvbiBmaWxsPSIjMTgxODE4IiBwb2ludHM9IjcyLDMzMC4wMzkxLDYyLDMzNC4wMzkxLDcyLDMzOC4wMzkxLDY4LDMzNC4wMzkxIiBzdHlsZT0ic3Ryb2tlOiMxODE4MTg7c3Ryb2tlLXdpZHRoOjE7Ii8+PGxpbmUgc3R5bGU9InN0cm9rZTojMTgxODE4O3N0cm9rZS13aWR0aDoxO3N0cm9rZS1kYXNoYXJyYXk6Mi4wLDIuMDsiIHgxPSI2NiIgeDI9IjI5OC41IiB5MT0iMzM0LjAzOTEiIHkyPSIzMzQuMDM5MSIvPjx0ZXh0IGZpbGw9IiMwMDAwMDAiIGZvbnQtZmFtaWx5PSJzYW5zLXNlcmlmIiBmb250LXNpemU9IjEzIiBsZW5ndGhBZGp1c3Q9InNwYWNpbmciIHRleHRMZW5ndGg9IjE4OC41IiB4PSI3OCIgeT0iMzMwLjQxNDEiPnJldHVybiAvYWRtaW4vY2VudGVySW5mby9lZGl0PC90ZXh0PjwvZz48bGluZSBzdHlsZT0ic3Ryb2tlOiMwMDAwMDA7c3Ryb2tlLXdpZHRoOjE7c3Ryb2tlLWRhc2hhcnJheToyLjAsMi4wOyIgeDE9IjIwIiB4Mj0iMTMyMi41IiB5MT0iMzQzLjAzOTEiIHkyPSIzNDMuMDM5MSIvPjx0ZXh0IGZpbGw9IiMwMDAwMDAiIGZvbnQtZmFtaWx5PSJzYW5zLXNlcmlmIiBmb250LXNpemU9IjExIiBmb250LXdlaWdodD0iYm9sZCIgbGVuZ3RoQWRqdXN0PSJzcGFjaW5nIiB0ZXh0TGVuZ3RoPSI1NSIgeD0iMjUiIHk9IjM1My40Mzc1Ij5bJiMyNzQ5MTsmIzI0MTIwOyYjMjA5NjY7JiMyOTcwMjtdPC90ZXh0PjxnIGNsYXNzPSJtZXNzYWdlIiBkYXRhLXBhcnRpY2lwYW50LTE9IkNvbnRyb2xsZXIiIGRhdGEtcGFydGljaXBhbnQtMj0iU2VydmljZSI+PHBvbHlnb24gZmlsbD0iIzE4MTgxOCIgcG9pbnRzPSI3ODcsMzcxLjcyNjYsNzk3LDM3NS43MjY2LDc4NywzNzkuNzI2Niw3OTEsMzc1LjcyNjYiIHN0eWxlPSJzdHJva2U6IzE4MTgxODtzdHJva2Utd2lkdGg6MTsiLz48bGluZSBzdHlsZT0ic3Ryb2tlOiMxODE4MTg7c3Ryb2tlLXdpZHRoOjE7IiB4MT0iMjk5LjUiIHgyPSI3OTMiIHkxPSIzNzUuNzI2NiIgeTI9IjM3NS43MjY2Ii8+PHRleHQgZmlsbD0iIzAwMDAwMCIgZm9udC1mYW1pbHk9InNhbnMtc2VyaWYiIGZvbnQtc2l6ZT0iMTMiIGxlbmd0aEFkanVzdD0ic3BhY2luZyIgdGV4dExlbmd0aD0iMTY5IiB4PSIzMDYuNSIgeT0iMzcyLjEwMTYiPnVwZGF0ZUNlbnRlckluZm9EYXRhKGZvcm0pPC90ZXh0PjwvZz48cGF0aCBkPSJNNjU0LDM4OC43MjY2IEw2NTQsNDExLjcyNjYgTDExMTAsNDExLjcyNjYgTDExMTAsMzk4LjcyNjYgTDExMDAsMzg4LjcyNjYgTDY1NCwzODguNzI2NiIgZmlsbD0iI0ZFRkZERCIgc3R5bGU9InN0cm9rZTojMTgxODE4O3N0cm9rZS13aWR0aDowLjU7Ii8+PHBhdGggZD0iTTExMDAsMzg4LjcyNjYgTDExMDAsMzk4LjcyNjYgTDExMTAsMzk4LjcyNjYgTDExMDAsMzg4LjcyNjYiIGZpbGw9IiNGRUZGREQiIHN0eWxlPSJzdHJva2U6IzE4MTgxODtzdHJva2Utd2lkdGg6MC41OyIvPjx0ZXh0IGZpbGw9IiMwMDAwMDAiIGZvbnQtZmFtaWx5PSJzYW5zLXNlcmlmIiBmb250LXNpemU9IjEzIiBsZW5ndGhBZGp1c3Q9InNwYWNpbmciIHRleHRMZW5ndGg9IjQzNS41IiB4PSI2NjAiIHk9IjQwNi4wMTU2Ij4mIzEyNDg4OyYjMTI1MjE7JiMxMjUzMTsmIzEyNDcwOyYjMTI0NjM7JiMxMjQ3MTsmIzEyNTE5OyYjMTI1MzE7JiMyMTA0NjsmIzI0NDgxOyYjNjUzMDY7QFRyYW5zYWN0aW9uYWwgJiMxMjM5NTsmIzEyNDI0OyYjMTI0MjY7JiMyMDM2MzsmIzIyODA2OyYjMzAzMzA7JiMyOTk4MzsmIzI2MTc4OyYjMTIzOTk7JiMxMjUyNTsmIzEyNTQwOyYjMTI1MjM7JiMxMjQ5NjsmIzEyNDgzOyYjMTI0NjM7PC90ZXh0PjxwYXRoIGQ9Ik03MTIuNSw0MjQuNjQwNiBMODA5LjUsNDI0LjY0MDYgTDgwOS41LDQzMC41NTQ3IEw3OTkuNSw0NDAuNTU0NyBMNzEyLjUsNDQwLjU1NDcgTDcxMi41LDQyNC42NDA2IiBmaWxsPSIjRUVFRUVFIiBzdHlsZT0ic3Ryb2tlOiMwMDAwMDA7c3Ryb2tlLXdpZHRoOjEuNTsiLz48cmVjdCBmaWxsPSJub25lIiBoZWlnaHQ9IjIwNS4xNzE5IiBzdHlsZT0ic3Ryb2tlOiMwMDAwMDA7c3Ryb2tlLXdpZHRoOjEuNTsiIHdpZHRoPSI2MDAiIHg9IjcxMi41IiB5PSI0MjQuNjQwNiIvPjx0ZXh0IGZpbGw9IiMwMDAwMDAiIGZvbnQtZmFtaWx5PSJzYW5zLXNlcmlmIiBmb250LXNpemU9IjEzIiBmb250LXdlaWdodD0iYm9sZCIgbGVuZ3RoQWRqdXN0PSJzcGFjaW5nIiB0ZXh0TGVuZ3RoPSI1MiIgeD0iNzI3LjUiIHk9IjQzNy45Mjk3Ij5jcml0aWNhbDwvdGV4dD48dGV4dCBmaWxsPSIjMDAwMDAwIiBmb250LWZhbWlseT0ic2Fucy1zZXJpZiIgZm9udC1zaXplPSIxMSIgZm9udC13ZWlnaHQ9ImJvbGQiIGxlbmd0aEFkanVzdD0ic3BhY2luZyIgdGV4dExlbmd0aD0iOTkiIHg9IjgyNC41IiB5PSI0MzcuMDM5MSI+WyYjMTI0ODg7JiMxMjUyMTsmIzEyNTMxOyYjMTI0NzA7JiMxMjQ2MzsmIzEyNDcxOyYjMTI1MTk7JiMxMjUzMTtdPC90ZXh0PjxwYXRoIGQ9Ik04MDcsNDQ1LjU1NDcgTDgwNyw0NjguNTU0NyBMMTMwMiw0NjguNTU0NyBMMTMwMiw0NTUuNTU0NyBMMTI5Miw0NDUuNTU0NyBMODA3LDQ0NS41NTQ3IiBmaWxsPSIjRkVGRkREIiBzdHlsZT0ic3Ryb2tlOiMxODE4MTg7c3Ryb2tlLXdpZHRoOjAuNTsiLz48cGF0aCBkPSJNMTI5Miw0NDUuNTU0NyBMMTI5Miw0NTUuNTU0NyBMMTMwMiw0NTUuNTU0NyBMMTI5Miw0NDUuNTU0NyIgZmlsbD0iI0ZFRkZERCIgc3R5bGU9InN0cm9rZTojMTgxODE4O3N0cm9rZS13aWR0aDowLjU7Ii8+PHRleHQgZmlsbD0iIzAwMDAwMCIgZm9udC1mYW1pbHk9InNhbnMtc2VyaWYiIGZvbnQtc2l6ZT0iMTMiIGxlbmd0aEFkanVzdD0ic3BhY2luZyIgdGV4dExlbmd0aD0iNDc0LjUiIHg9IjgxMyIgeT0iNDYyLjg0MzgiPiYjMjU0OTA7JiMyMDE4MjsmIzIxMDQ2OyYjMjQ0ODE7JiM2NTMwNjtAVmVyc2lvbiAmIzEyMzk1OyYjMTI0MjQ7JiMxMjQyNzsmIzI3MDA1OyYjMzUyNTE7JiMxMjUyNTsmIzEyNDgzOyYjMTI0NjM7JiMxMjQzNDsmIzM2OTY5OyYjMjk5OTI7JiM2NTI4ODsmIzEyNDk2OyYjMTI1NDA7JiMxMjQ3MjsmIzEyNTE5OyYjMTI1MzE7JiMxOTk4MTsmIzE5OTY4OyYjMzMyNjg7JiMyNjE3ODsmIzEyMzk5OyYjMjYzNTY7JiMyNjAzMjsmIzIwMDEzOyYjMjc0OTA7JiM2NTI4OTs8L3RleHQ+PGcgY2xhc3M9Im1lc3NhZ2UiIGRhdGEtcGFydGljaXBhbnQtMT0iU2VydmljZSIgZGF0YS1wYXJ0aWNpcGFudC0yPSJSZXBvc2l0b3J5Ij48cG9seWdvbiBmaWxsPSIjMTgxODE4IiBwb2ludHM9Ijk1NCw0OTAuMzgyOCw5NjQsNDk0LjM4MjgsOTU0LDQ5OC4zODI4LDk1OCw0OTQuMzgyOCIgc3R5bGU9InN0cm9rZTojMTgxODE4O3N0cm9rZS13aWR0aDoxOyIvPjxsaW5lIHN0eWxlPSJzdHJva2U6IzE4MTgxODtzdHJva2Utd2lkdGg6MTsiIHgxPSI3OTkiIHgyPSI5NjAiIHkxPSI0OTQuMzgyOCIgeTI9IjQ5NC4zODI4Ii8+PHRleHQgZmlsbD0iIzAwMDAwMCIgZm9udC1mYW1pbHk9InNhbnMtc2VyaWYiIGZvbnQtc2l6ZT0iMTMiIGxlbmd0aEFkanVzdD0ic3BhY2luZyIgdGV4dExlbmd0aD0iMTQzIiB4PSI4MDYiIHk9IjQ5MC43NTc4Ij51cGRhdGVDZW50ZXJJbmZvKGZvcm0pPC90ZXh0PjwvZz48ZyBjbGFzcz0ibWVzc2FnZSIgZGF0YS1wYXJ0aWNpcGFudC0xPSJSZXBvc2l0b3J5IiBkYXRhLXBhcnRpY2lwYW50LTI9IkRCIj48cG9seWdvbiBmaWxsPSIjMTgxODE4IiBwb2ludHM9IjExMzIsNTE4LjI5NjksMTE0Miw1MjIuMjk2OSwxMTMyLDUyNi4yOTY5LDExMzYsNTIyLjI5NjkiIHN0eWxlPSJzdHJva2U6IzE4MTgxODtzdHJva2Utd2lkdGg6MTsiLz48bGluZSBzdHlsZT0ic3Ryb2tlOiMxODE4MTg7c3Ryb2tlLXdpZHRoOjE7IiB4MT0iOTY2IiB4Mj0iMTEzOCIgeTE9IjUyMi4yOTY5IiB5Mj0iNTIyLjI5NjkiLz48dGV4dCBmaWxsPSIjMDAwMDAwIiBmb250LWZhbWlseT0ic2Fucy1zZXJpZiIgZm9udC1zaXplPSIxMyIgbGVuZ3RoQWRqdXN0PSJzcGFjaW5nIiB0ZXh0TGVuZ3RoPSIxMTciIHg9Ijk3MyIgeT0iNTE4LjY3MTkiPlVQREFURSBjZW50ZXJfaW5mbzwvdGV4dD48L2c+PHBhdGggZD0iTTcyMi41LDUzNy4yOTY5IEw3ODcsNTM3LjI5NjkgTDc4Nyw1NDMuMjEwOSBMNzc3LDU1My4yMTA5IEw3MjIuNSw1NTMuMjEwOSBMNzIyLjUsNTM3LjI5NjkiIGZpbGw9IiNFRUVFRUUiIHN0eWxlPSJzdHJva2U6IzAwMDAwMDtzdHJva2Utd2lkdGg6MS41OyIvPjxyZWN0IGZpbGw9Im5vbmUiIGhlaWdodD0iODUuNTE1NiIgc3R5bGU9InN0cm9rZTojMDAwMDAwO3N0cm9rZS13aWR0aDoxLjU7IiB3aWR0aD0iNTIyLjUiIHg9IjcyMi41IiB5PSI1MzcuMjk2OSIvPjx0ZXh0IGZpbGw9IiMwMDAwMDAiIGZvbnQtZmFtaWx5PSJzYW5zLXNlcmlmIiBmb250LXNpemU9IjEzIiBmb250LXdlaWdodD0iYm9sZCIgbGVuZ3RoQWRqdXN0PSJzcGFjaW5nIiB0ZXh0TGVuZ3RoPSIxOS41IiB4PSI3MzcuNSIgeT0iNTUwLjU4NTkiPmFsdDwvdGV4dD48dGV4dCBmaWxsPSIjMDAwMDAwIiBmb250LWZhbWlseT0ic2Fucy1zZXJpZiIgZm9udC1zaXplPSIxMSIgZm9udC13ZWlnaHQ9ImJvbGQiIGxlbmd0aEFkanVzdD0ic3BhY2luZyIgdGV4dExlbmd0aD0iMTIxIiB4PSI4MDIiIHk9IjU0OS42OTUzIj5bJiMyNjM1NjsmIzI2MDMyOyYjMjAwMTM7JiMxMjM5NTtEQiYjMTI0NTY7JiMxMjUyMTsmIzEyNTQwOyYjMzAzMzA7JiMyOTk4MztdPC90ZXh0PjxnIGNsYXNzPSJtZXNzYWdlIiBkYXRhLXBhcnRpY2lwYW50LTE9IlNlcnZpY2UiIGRhdGEtcGFydGljaXBhbnQtMj0iREIiPjxwb2x5Z29uIGZpbGw9IiMxODE4MTgiIHBvaW50cz0iMTEzMiw1NjkuMTI1LDExNDIsNTczLjEyNSwxMTMyLDU3Ny4xMjUsMTEzNiw1NzMuMTI1IiBzdHlsZT0ic3Ryb2tlOiMxODE4MTg7c3Ryb2tlLXdpZHRoOjE7Ii8+PGxpbmUgc3R5bGU9InN0cm9rZTojMTgxODE4O3N0cm9rZS13aWR0aDoxOyIgeDE9Ijc5OSIgeDI9IjExMzgiIHkxPSI1NzMuMTI1IiB5Mj0iNTczLjEyNSIvPjx0ZXh0IGZpbGw9IiMwMDAwMDAiIGZvbnQtZmFtaWx5PSJzYW5zLXNlcmlmIiBmb250LXNpemU9IjEzIiBsZW5ndGhBZGp1c3Q9InNwYWNpbmciIHRleHRMZW5ndGg9Ijc4IiB4PSI4MDYiIHk9IjU2OS41Ij4mIzEyNTI1OyYjMTI1NDA7JiMxMjUyMzsmIzEyNDk2OyYjMTI0ODM7JiMxMjQ2Mzs8L3RleHQ+PC9nPjxsaW5lIHN0eWxlPSJzdHJva2U6IzAwMDAwMDtzdHJva2Utd2lkdGg6MTtzdHJva2UtZGFzaGFycmF5OjIuMCwyLjA7IiB4MT0iNzIyLjUiIHgyPSIxMjQ1IiB5MT0iNTgyLjEyNSIgeTI9IjU4Mi4xMjUiLz48dGV4dCBmaWxsPSIjMDAwMDAwIiBmb250LWZhbWlseT0ic2Fucy1zZXJpZiIgZm9udC1zaXplPSIxMSIgZm9udC13ZWlnaHQ9ImJvbGQiIGxlbmd0aEFkanVzdD0ic3BhY2luZyIgdGV4dExlbmd0aD0iNTUiIHg9IjcyNy41IiB5PSI1OTIuNTIzNCI+WyYjMjc0OTE7JiMyNDEyMDsmIzIwOTY2OyYjMjk3MDI7XTwvdGV4dD48ZyBjbGFzcz0ibWVzc2FnZSIgZGF0YS1wYXJ0aWNpcGFudC0xPSJTZXJ2aWNlIiBkYXRhLXBhcnRpY2lwYW50LTI9IkRCIj48cG9seWdvbiBmaWxsPSIjMTgxODE4IiBwb2ludHM9IjExMzIsNjEwLjgxMjUsMTE0Miw2MTQuODEyNSwxMTMyLDYxOC44MTI1LDExMzYsNjE0LjgxMjUiIHN0eWxlPSJzdHJva2U6IzE4MTgxODtzdHJva2Utd2lkdGg6MTsiLz48bGluZSBzdHlsZT0ic3Ryb2tlOiMxODE4MTg7c3Ryb2tlLXdpZHRoOjE7IiB4MT0iNzk5IiB4Mj0iMTEzOCIgeTE9IjYxNC44MTI1IiB5Mj0iNjE0LjgxMjUiLz48dGV4dCBmaWxsPSIjMDAwMDAwIiBmb250LWZhbWlseT0ic2Fucy1zZXJpZiIgZm9udC1zaXplPSIxMyIgbGVuZ3RoQWRqdXN0PSJzcGFjaW5nIiB0ZXh0TGVuZ3RoPSI1MiIgeD0iODA2IiB5PSI2MTEuMTg3NSI+JiMxMjQ2NzsmIzEyNTExOyYjMTI0ODM7JiMxMjQ4ODs8L3RleHQ+PC9nPjxwYXRoIGQ9Ik0zMCw2NDMuODEyNSBMOTQuNSw2NDMuODEyNSBMOTQuNSw2NDkuNzI2NiBMODQuNSw2NTkuNzI2NiBMMzAsNjU5LjcyNjYgTDMwLDY0My44MTI1IiBmaWxsPSIjRUVFRUVFIiBzdHlsZT0ic3Ryb2tlOiMwMDAwMDA7c3Ryb2tlLXdpZHRoOjEuNTsiLz48cmVjdCBmaWxsPSJub25lIiBoZWlnaHQ9IjE2OS4yNTc4IiBzdHlsZT0ic3Ryb2tlOiMwMDAwMDA7c3Ryb2tlLXdpZHRoOjEuNTsiIHdpZHRoPSI4NDUuNSIgeD0iMzAiIHk9IjY0My44MTI1Ii8+PHRleHQgZmlsbD0iIzAwMDAwMCIgZm9udC1mYW1pbHk9InNhbnMtc2VyaWYiIGZvbnQtc2l6ZT0iMTMiIGZvbnQtd2VpZ2h0PSJib2xkIiBsZW5ndGhBZGp1c3Q9InNwYWNpbmciIHRleHRMZW5ndGg9IjE5LjUiIHg9IjQ1IiB5PSI2NTcuMTAxNiI+YWx0PC90ZXh0Pjx0ZXh0IGZpbGw9IiMwMDAwMDAiIGZvbnQtZmFtaWx5PSJzYW5zLXNlcmlmIiBmb250LXNpemU9IjExIiBmb250LXdlaWdodD0iYm9sZCIgbGVuZ3RoQWRqdXN0PSJzcGFjaW5nIiB0ZXh0TGVuZ3RoPSI4OCIgeD0iMTA5LjUiIHk9IjY1Ni4yMTA5Ij5bREImIzEyNDU2OyYjMTI1MjE7JiMxMjU0MDsmIzMwMzMwOyYjMjk5ODM7JiMyNjE3ODtdPC90ZXh0PjxnIGNsYXNzPSJtZXNzYWdlIiBkYXRhLXBhcnRpY2lwYW50LTE9IlNlcnZpY2UiIGRhdGEtcGFydGljaXBhbnQtMj0iQ29udHJvbGxlciI+PHBvbHlnb24gZmlsbD0iIzE4MTgxOCIgcG9pbnRzPSIzMTAuNSw2NzUuNjQwNiwzMDAuNSw2NzkuNjQwNiwzMTAuNSw2ODMuNjQwNiwzMDYuNSw2NzkuNjQwNiIgc3R5bGU9InN0cm9rZTojMTgxODE4O3N0cm9rZS13aWR0aDoxOyIvPjxsaW5lIHN0eWxlPSJzdHJva2U6IzE4MTgxODtzdHJva2Utd2lkdGg6MTtzdHJva2UtZGFzaGFycmF5OjIuMCwyLjA7IiB4MT0iMzA0LjUiIHgyPSI3OTgiIHkxPSI2NzkuNjQwNiIgeTI9IjY3OS42NDA2Ii8+PHRleHQgZmlsbD0iIzAwMDAwMCIgZm9udC1mYW1pbHk9InNhbnMtc2VyaWYiIGZvbnQtc2l6ZT0iMTMiIGxlbmd0aEFkanVzdD0ic3BhY2luZyIgdGV4dExlbmd0aD0iMTMwIiB4PSIzMTYuNSIgeT0iNjc2LjAxNTYiPiYjMTI0NTY7JiMxMjUyMTsmIzEyNTQwOyYjMTI1MTM7JiMxMjQ4MzsmIzEyNDc1OyYjMTI1NDA7JiMxMjQ3MjsmIzM2ODY1OyYjMjA0NDk7PC90ZXh0PjwvZz48ZyBjbGFzcz0ibWVzc2FnZSIgZGF0YS1wYXJ0aWNpcGFudC0xPSJDb250cm9sbGVyIiBkYXRhLXBhcnRpY2lwYW50LTI9IlVzZXIiPjxwb2x5Z29uIGZpbGw9IiMxODE4MTgiIHBvaW50cz0iNzIsNzAzLjU1NDcsNjIsNzA3LjU1NDcsNzIsNzExLjU1NDcsNjgsNzA3LjU1NDciIHN0eWxlPSJzdHJva2U6IzE4MTgxODtzdHJva2Utd2lkdGg6MTsiLz48bGluZSBzdHlsZT0ic3Ryb2tlOiMxODE4MTg7c3Ryb2tlLXdpZHRoOjE7c3Ryb2tlLWRhc2hhcnJheToyLjAsMi4wOyIgeDE9IjY2IiB4Mj0iMjk4LjUiIHkxPSI3MDcuNTU0NyIgeTI9IjcwNy41NTQ3Ii8+PHRleHQgZmlsbD0iIzAwMDAwMCIgZm9udC1mYW1pbHk9InNhbnMtc2VyaWYiIGZvbnQtc2l6ZT0iMTMiIGxlbmd0aEFkanVzdD0ic3BhY2luZyIgdGV4dExlbmd0aD0iMTMwIiB4PSI3OCIgeT0iNzAzLjkyOTciPiYjMTI0NTY7JiMxMjUyMTsmIzEyNTQwOyYjMTI1MTM7JiMxMjQ4MzsmIzEyNDc1OyYjMTI1NDA7JiMxMjQ3MjsmIzM0OTIwOyYjMzEwMzQ7PC90ZXh0PjwvZz48ZyBjbGFzcz0ibWVzc2FnZSIgZGF0YS1wYXJ0aWNpcGFudC0xPSJDb250cm9sbGVyIiBkYXRhLXBhcnRpY2lwYW50LTI9IlVzZXIiPjxwb2x5Z29uIGZpbGw9IiMxODE4MTgiIHBvaW50cz0iNzIsNzMxLjQ2ODgsNjIsNzM1LjQ2ODgsNzIsNzM5LjQ2ODgsNjgsNzM1LjQ2ODgiIHN0eWxlPSJzdHJva2U6IzE4MTgxODtzdHJva2Utd2lkdGg6MTsiLz48bGluZSBzdHlsZT0ic3Ryb2tlOiMxODE4MTg7c3Ryb2tlLXdpZHRoOjE7c3Ryb2tlLWRhc2hhcnJheToyLjAsMi4wOyIgeDE9IjY2IiB4Mj0iMjk4LjUiIHkxPSI3MzUuNDY4OCIgeTI9IjczNS40Njg4Ii8+PHRleHQgZmlsbD0iIzAwMDAwMCIgZm9udC1mYW1pbHk9InNhbnMtc2VyaWYiIGZvbnQtc2l6ZT0iMTMiIGxlbmd0aEFkanVzdD0ic3BhY2luZyIgdGV4dExlbmd0aD0iMjA4IiB4PSI3OCIgeT0iNzMxLjg0MzgiPnJlZGlyZWN0OiAvYWRtaW4vY2VudGVySW5mby9lZGl0PC90ZXh0PjwvZz48bGluZSBzdHlsZT0ic3Ryb2tlOiMwMDAwMDA7c3Ryb2tlLXdpZHRoOjE7c3Ryb2tlLWRhc2hhcnJheToyLjAsMi4wOyIgeDE9IjMwIiB4Mj0iODc1LjUiIHkxPSI3NDQuNDY4OCIgeTI9Ijc0NC40Njg4Ii8+PHRleHQgZmlsbD0iIzAwMDAwMCIgZm9udC1mYW1pbHk9InNhbnMtc2VyaWYiIGZvbnQtc2l6ZT0iMTEiIGZvbnQtd2VpZ2h0PSJib2xkIiBsZW5ndGhBZGp1c3Q9InNwYWNpbmciIHRleHRMZW5ndGg9IjU1IiB4PSIzNSIgeT0iNzU0Ljg2NzIiPlsmIzI2MzU2OyYjMjYwMzI7JiMyNTEwNDsmIzIxMTUxO108L3RleHQ+PGcgY2xhc3M9Im1lc3NhZ2UiIGRhdGEtcGFydGljaXBhbnQtMT0iQ29udHJvbGxlciIgZGF0YS1wYXJ0aWNpcGFudC0yPSJVc2VyIj48cG9seWdvbiBmaWxsPSIjMTgxODE4IiBwb2ludHM9IjcyLDc3My4xNTYzLDYyLDc3Ny4xNTYzLDcyLDc4MS4xNTYzLDY4LDc3Ny4xNTYzIiBzdHlsZT0ic3Ryb2tlOiMxODE4MTg7c3Ryb2tlLXdpZHRoOjE7Ii8+PGxpbmUgc3R5bGU9InN0cm9rZTojMTgxODE4O3N0cm9rZS13aWR0aDoxO3N0cm9rZS1kYXNoYXJyYXk6Mi4wLDIuMDsiIHgxPSI2NiIgeDI9IjI5OC41IiB5MT0iNzc3LjE1NjMiIHkyPSI3NzcuMTU2MyIvPjx0ZXh0IGZpbGw9IiMwMDAwMDAiIGZvbnQtZmFtaWx5PSJzYW5zLXNlcmlmIiBmb250LXNpemU9IjEzIiBsZW5ndGhBZGp1c3Q9InNwYWNpbmciIHRleHRMZW5ndGg9IjEyMy41IiB4PSI3OCIgeT0iNzczLjUzMTMiPmFkZEZsYXNoQXR0cmlidXRlKCk8L3RleHQ+PC9nPjxnIGNsYXNzPSJtZXNzYWdlIiBkYXRhLXBhcnRpY2lwYW50LTE9IkNvbnRyb2xsZXIiIGRhdGEtcGFydGljaXBhbnQtMj0iVXNlciI+PHBvbHlnb24gZmlsbD0iIzE4MTgxOCIgcG9pbnRzPSI3Miw4MDEuMDcwMyw2Miw4MDUuMDcwMyw3Miw4MDkuMDcwMyw2OCw4MDUuMDcwMyIgc3R5bGU9InN0cm9rZTojMTgxODE4O3N0cm9rZS13aWR0aDoxOyIvPjxsaW5lIHN0eWxlPSJzdHJva2U6IzE4MTgxODtzdHJva2Utd2lkdGg6MTtzdHJva2UtZGFzaGFycmF5OjIuMCwyLjA7IiB4MT0iNjYiIHgyPSIyOTguNSIgeTE9IjgwNS4wNzAzIiB5Mj0iODA1LjA3MDMiLz48dGV4dCBmaWxsPSIjMDAwMDAwIiBmb250LWZhbWlseT0ic2Fucy1zZXJpZiIgZm9udC1zaXplPSIxMyIgbGVuZ3RoQWRqdXN0PSJzcGFjaW5nIiB0ZXh0TGVuZ3RoPSIyMTQuNSIgeD0iNzgiIHk9IjgwMS40NDUzIj5yZWRpcmVjdDogL2FkbWluL2NlbnRlckluZm8vaW5kZXg8L3RleHQ+PC9nPjxsaW5lIHN0eWxlPSJzdHJva2U6IzAwMDAwMDtzdHJva2Utd2lkdGg6MTtzdHJva2UtZGFzaGFycmF5OjIuMCwyLjA7IiB4MT0iMTAiIHgyPSIxNDgxIiB5MT0iODI4LjA3MDMiIHkyPSI4MjguMDcwMyIvPjx0ZXh0IGZpbGw9IiMwMDAwMDAiIGZvbnQtZmFtaWx5PSJzYW5zLXNlcmlmIiBmb250LXNpemU9IjExIiBmb250LXdlaWdodD0iYm9sZCIgbGVuZ3RoQWRqdXN0PSJzcGFjaW5nIiB0ZXh0TGVuZ3RoPSIxMTAiIHg9IjE1IiB5PSI4MzguNDY4OCI+WyYjMzg3NTA7JiMyMTUxNjsmIzI2Mzk5OyYjMjA5NjY7JiMyOTcwMjsmIzY1Mjg4O0FqYXgmIzY1Mjg5O108L3RleHQ+PGcgY2xhc3M9Im1lc3NhZ2UiIGRhdGEtcGFydGljaXBhbnQtMT0iVXNlciIgZGF0YS1wYXJ0aWNpcGFudC0yPSJGcm9udGVuZCI+PHBvbHlnb24gZmlsbD0iIzE4MTgxOCIgcG9pbnRzPSIxMjY4LDg1Ni43NTc4LDEyNzgsODYwLjc1NzgsMTI2OCw4NjQuNzU3OCwxMjcyLDg2MC43NTc4IiBzdHlsZT0ic3Ryb2tlOiMxODE4MTg7c3Ryb2tlLXdpZHRoOjE7Ii8+PGxpbmUgc3R5bGU9InN0cm9rZTojMTgxODE4O3N0cm9rZS13aWR0aDoxOyIgeDE9IjYxIiB4Mj0iMTI3NCIgeTE9Ijg2MC43NTc4IiB5Mj0iODYwLjc1NzgiLz48dGV4dCBmaWxsPSIjMDAwMDAwIiBmb250LWZhbWlseT0ic2Fucy1zZXJpZiIgZm9udC1zaXplPSIxMyIgbGVuZ3RoQWRqdXN0PSJzcGFjaW5nIiB0ZXh0TGVuZ3RoPSIxMzAiIHg9IjY4IiB5PSI4NTcuMTMyOCI+JiMxMjUwMTsmIzEyNDU3OyYjMTI1NDA7JiMxMjUxMjsmIzIwODM3OyYjMjExNDc7JiM2NTI4ODsmIzMyMjMyOyYjMzg1OTg7JiM2NTI4OTs8L3RleHQ+PC9nPjxnIGNsYXNzPSJtZXNzYWdlIiBkYXRhLXBhcnRpY2lwYW50LTE9IkZyb250ZW5kIiBkYXRhLXBhcnRpY2lwYW50LTI9IkZyb250ZW5kIj48bGluZSBzdHlsZT0ic3Ryb2tlOiMxODE4MTg7c3Ryb2tlLXdpZHRoOjE7IiB4MT0iMTI4MCIgeDI9IjEzMjIiIHkxPSI4ODguNjcxOSIgeTI9Ijg4OC42NzE5Ii8+PGxpbmUgc3R5bGU9InN0cm9rZTojMTgxODE4O3N0cm9rZS13aWR0aDoxOyIgeDE9IjEzMjIiIHgyPSIxMzIyIiB5MT0iODg4LjY3MTkiIHkyPSI5MDEuNjcxOSIvPjxsaW5lIHN0eWxlPSJzdHJva2U6IzE4MTgxODtzdHJva2Utd2lkdGg6MTsiIHgxPSIxMjgxIiB4Mj0iMTMyMiIgeTE9IjkwMS42NzE5IiB5Mj0iOTAxLjY3MTkiLz48cG9seWdvbiBmaWxsPSIjMTgxODE4IiBwb2ludHM9IjEyOTEsODk3LjY3MTksMTI4MSw5MDEuNjcxOSwxMjkxLDkwNS42NzE5LDEyODcsOTAxLjY3MTkiIHN0eWxlPSJzdHJva2U6IzE4MTgxODtzdHJva2Utd2lkdGg6MTsiLz48dGV4dCBmaWxsPSIjMDAwMDAwIiBmb250LWZhbWlseT0ic2Fucy1zZXJpZiIgZm9udC1zaXplPSIxMyIgbGVuZ3RoQWRqdXN0PSJzcGFjaW5nIiB0ZXh0TGVuZ3RoPSIxODIiIHg9IjEyODciIHk9Ijg4NS4wNDY5Ij4mIzIwODM3OyYjMjExNDc7JiMxMjQ4MTsmIzEyNDU1OyYjMTI0ODM7JiMxMjQ2MzsmIzY1Mjg4OyYjMTI1MjI7JiMxMjQ1MDsmIzEyNTIzOyYjMTI0Nzk7JiMxMjQ1MjsmIzEyNTEyOyYjNjUyODk7PC90ZXh0PjwvZz48cGF0aCBkPSJNMjAsOTE2LjY3MTkgTDg0LjUsOTE2LjY3MTkgTDg0LjUsOTIyLjU4NTkgTDc0LjUsOTMyLjU4NTkgTDIwLDkzMi41ODU5IEwyMCw5MTYuNjcxOSIgZmlsbD0iI0VFRUVFRSIgc3R5bGU9InN0cm9rZTojMDAwMDAwO3N0cm9rZS13aWR0aDoxLjU7Ii8+PHJlY3QgZmlsbD0ibm9uZSIgaGVpZ2h0PSI2NzIuNDI5NyIgc3R5bGU9InN0cm9rZTojMDAwMDAwO3N0cm9rZS13aWR0aDoxLjU7IiB3aWR0aD0iMTM2NyIgeD0iMjAiIHk9IjkxNi42NzE5Ii8+PHRleHQgZmlsbD0iIzAwMDAwMCIgZm9udC1mYW1pbHk9InNhbnMtc2VyaWYiIGZvbnQtc2l6ZT0iMTMiIGZvbnQtd2VpZ2h0PSJib2xkIiBsZW5ndGhBZGp1c3Q9InNwYWNpbmciIHRleHRMZW5ndGg9IjE5LjUiIHg9IjM1IiB5PSI5MjkuOTYwOSI+YWx0PC90ZXh0Pjx0ZXh0IGZpbGw9IiMwMDAwMDAiIGZvbnQtZmFtaWx5PSJzYW5zLXNlcmlmIiBmb250LXNpemU9IjExIiBmb250LXdlaWdodD0iYm9sZCIgbGVuZ3RoQWRqdXN0PSJzcGFjaW5nIiB0ZXh0TGVuZ3RoPSI1NSIgeD0iOTkuNSIgeT0iOTI5LjA3MDMiPlsmIzIwODM3OyYjMjExNDc7JiMxOTk4MTsmIzI3NDkxO108L3RleHQ+PGcgY2xhc3M9Im1lc3NhZ2UiIGRhdGEtcGFydGljaXBhbnQtMT0iRnJvbnRlbmQiIGRhdGEtcGFydGljaXBhbnQtMj0iVXNlciI+PHBvbHlnb24gZmlsbD0iIzE4MTgxOCIgcG9pbnRzPSI3Miw5NDguNSw2Miw5NTIuNSw3Miw5NTYuNSw2OCw5NTIuNSIgc3R5bGU9InN0cm9rZTojMTgxODE4O3N0cm9rZS13aWR0aDoxOyIvPjxsaW5lIHN0eWxlPSJzdHJva2U6IzE4MTgxODtzdHJva2Utd2lkdGg6MTtzdHJva2UtZGFzaGFycmF5OjIuMCwyLjA7IiB4MT0iNjYiIHgyPSIxMjc5IiB5MT0iOTUyLjUiIHkyPSI5NTIuNSIvPjx0ZXh0IGZpbGw9IiMwMDAwMDAiIGZvbnQtZmFtaWx5PSJzYW5zLXNlcmlmIiBmb250LXNpemU9IjEzIiBsZW5ndGhBZGp1c3Q9InNwYWNpbmciIHRleHRMZW5ndGg9IjkxIiB4PSI3OCIgeT0iOTQ4Ljg3NSI+JiMyMDgzNzsmIzIxMTQ3OyYjMTI0NTY7JiMxMjUyMTsmIzEyNTQwOyYjMzQ5MjA7JiMzMTAzNDs8L3RleHQ+PC9nPjxsaW5lIHN0eWxlPSJzdHJva2U6IzAwMDAwMDtzdHJva2Utd2lkdGg6MTtzdHJva2UtZGFzaGFycmF5OjIuMCwyLjA7IiB4MT0iMjAiIHgyPSIxMzg3IiB5MT0iOTYxLjUiIHkyPSI5NjEuNSIvPjx0ZXh0IGZpbGw9IiMwMDAwMDAiIGZvbnQtZmFtaWx5PSJzYW5zLXNlcmlmIiBmb250LXNpemU9IjExIiBmb250LXdlaWdodD0iYm9sZCIgbGVuZ3RoQWRqdXN0PSJzcGFjaW5nIiB0ZXh0TGVuZ3RoPSI1NSIgeD0iMjUiIHk9Ijk3MS44OTg0Ij5bJiMyMDgzNzsmIzIxMTQ3OyYjMjc0OTE7JiMyNDEyMDtdPC90ZXh0PjxnIGNsYXNzPSJtZXNzYWdlIiBkYXRhLXBhcnRpY2lwYW50LTE9IlVzZXIiIGRhdGEtcGFydGljaXBhbnQtMj0iRnJvbnRlbmQiPjxwb2x5Z29uIGZpbGw9IiMxODE4MTgiIHBvaW50cz0iMTI2OCw5OTAuMTg3NSwxMjc4LDk5NC4xODc1LDEyNjgsOTk4LjE4NzUsMTI3Miw5OTQuMTg3NSIgc3R5bGU9InN0cm9rZTojMTgxODE4O3N0cm9rZS13aWR0aDoxOyIvPjxsaW5lIHN0eWxlPSJzdHJva2U6IzE4MTgxODtzdHJva2Utd2lkdGg6MTsiIHgxPSI2MSIgeDI9IjEyNzQiIHkxPSI5OTQuMTg3NSIgeTI9Ijk5NC4xODc1Ii8+PHRleHQgZmlsbD0iIzAwMDAwMCIgZm9udC1mYW1pbHk9InNhbnMtc2VyaWYiIGZvbnQtc2l6ZT0iMTMiIGxlbmd0aEFkanVzdD0ic3BhY2luZyIgdGV4dExlbmd0aD0iOTEiIHg9IjY4IiB5PSI5OTAuNTYyNSI+JiMyNjM1NjsmIzI2MDMyOyYjMTI1MDg7JiMxMjQ3OTsmIzEyNTMxOyYjMjUyNzY7JiMxOTk3OTs8L3RleHQ+PC9nPjxnIGNsYXNzPSJtZXNzYWdlIiBkYXRhLXBhcnRpY2lwYW50LTE9IkZyb250ZW5kIiBkYXRhLXBhcnRpY2lwYW50LTI9IkNvbnRyb2xsZXIiPjxwb2x5Z29uIGZpbGw9IiMxODE4MTgiIHBvaW50cz0iMzEwLjUsMTAxOC4xMDE2LDMwMC41LDEwMjIuMTAxNiwzMTAuNSwxMDI2LjEwMTYsMzA2LjUsMTAyMi4xMDE2IiBzdHlsZT0ic3Ryb2tlOiMxODE4MTg7c3Ryb2tlLXdpZHRoOjE7Ii8+PGxpbmUgc3R5bGU9InN0cm9rZTojMTgxODE4O3N0cm9rZS13aWR0aDoxOyIgeDE9IjMwNC41IiB4Mj0iMTI3OSIgeTE9IjEwMjIuMTAxNiIgeTI9IjEwMjIuMTAxNiIvPjx0ZXh0IGZpbGw9IiMwMDAwMDAiIGZvbnQtZmFtaWx5PSJzYW5zLXNlcmlmIiBmb250LXNpemU9IjEzIiBsZW5ndGhBZGp1c3Q9InNwYWNpbmciIHRleHRMZW5ndGg9IjIxNC41IiB4PSIzMTYuNSIgeT0iMTAxOC40NzY2Ij5BamF4IFBVVCAvYWRtaW4vY2VudGVySW5mby91cGRhdGU8L3RleHQ+PC9nPjxnIGNsYXNzPSJtZXNzYWdlIiBkYXRhLXBhcnRpY2lwYW50LTE9IkNvbnRyb2xsZXIiIGRhdGEtcGFydGljaXBhbnQtMj0iU2VydmljZSI+PHBvbHlnb24gZmlsbD0iIzE4MTgxOCIgcG9pbnRzPSI3ODcsMTA0Ni4wMTU2LDc5NywxMDUwLjAxNTYsNzg3LDEwNTQuMDE1Niw3OTEsMTA1MC4wMTU2IiBzdHlsZT0ic3Ryb2tlOiMxODE4MTg7c3Ryb2tlLXdpZHRoOjE7Ii8+PGxpbmUgc3R5bGU9InN0cm9rZTojMTgxODE4O3N0cm9rZS13aWR0aDoxOyIgeDE9IjI5OS41IiB4Mj0iNzkzIiB5MT0iMTA1MC4wMTU2IiB5Mj0iMTA1MC4wMTU2Ii8+PHRleHQgZmlsbD0iIzAwMDAwMCIgZm9udC1mYW1pbHk9InNhbnMtc2VyaWYiIGZvbnQtc2l6ZT0iMTMiIGxlbmd0aEFkanVzdD0ic3BhY2luZyIgdGV4dExlbmd0aD0iMTY5IiB4PSIzMDYuNSIgeT0iMTA0Ni4zOTA2Ij51cGRhdGVDZW50ZXJJbmZvRGF0YShmb3JtKTwvdGV4dD48L2c+PHBhdGggZD0iTTY1NCwxMDYzLjAxNTYgTDY1NCwxMDg2LjAxNTYgTDExMTAsMTA4Ni4wMTU2IEwxMTEwLDEwNzMuMDE1NiBMMTEwMCwxMDYzLjAxNTYgTDY1NCwxMDYzLjAxNTYiIGZpbGw9IiNGRUZGREQiIHN0eWxlPSJzdHJva2U6IzE4MTgxODtzdHJva2Utd2lkdGg6MC41OyIvPjxwYXRoIGQ9Ik0xMTAwLDEwNjMuMDE1NiBMMTEwMCwxMDczLjAxNTYgTDExMTAsMTA3My4wMTU2IEwxMTAwLDEwNjMuMDE1NiIgZmlsbD0iI0ZFRkZERCIgc3R5bGU9InN0cm9rZTojMTgxODE4O3N0cm9rZS13aWR0aDowLjU7Ii8+PHRleHQgZmlsbD0iIzAwMDAwMCIgZm9udC1mYW1pbHk9InNhbnMtc2VyaWYiIGZvbnQtc2l6ZT0iMTMiIGxlbmd0aEFkanVzdD0ic3BhY2luZyIgdGV4dExlbmd0aD0iNDM1LjUiIHg9IjY2MCIgeT0iMTA4MC4zMDQ3Ij4mIzEyNDg4OyYjMTI1MjE7JiMxMjUzMTsmIzEyNDcwOyYjMTI0NjM7JiMxMjQ3MTsmIzEyNTE5OyYjMTI1MzE7JiMyMTA0NjsmIzI0NDgxOyYjNjUzMDY7QFRyYW5zYWN0aW9uYWwgJiMxMjM5NTsmIzEyNDI0OyYjMTI0MjY7JiMyMDM2MzsmIzIyODA2OyYjMzAzMzA7JiMyOTk4MzsmIzI2MTc4OyYjMTIzOTk7JiMxMjUyNTsmIzEyNTQwOyYjMTI1MjM7JiMxMjQ5NjsmIzEyNDgzOyYjMTI0NjM7PC90ZXh0PjxwYXRoIGQ9Ik04MDcsMTA5Ni45Mjk3IEw4MDcsMTExOS45Mjk3IEwxMzAyLDExMTkuOTI5NyBMMTMwMiwxMTA2LjkyOTcgTDEyOTIsMTA5Ni45Mjk3IEw4MDcsMTA5Ni45Mjk3IiBmaWxsPSIjRkVGRkREIiBzdHlsZT0ic3Ryb2tlOiMxODE4MTg7c3Ryb2tlLXdpZHRoOjAuNTsiLz48cGF0aCBkPSJNMTI5MiwxMDk2LjkyOTcgTDEyOTIsMTEwNi45Mjk3IEwxMzAyLDExMDYuOTI5NyBMMTI5MiwxMDk2LjkyOTciIGZpbGw9IiNGRUZGREQiIHN0eWxlPSJzdHJva2U6IzE4MTgxODtzdHJva2Utd2lkdGg6MC41OyIvPjx0ZXh0IGZpbGw9IiMwMDAwMDAiIGZvbnQtZmFtaWx5PSJzYW5zLXNlcmlmIiBmb250LXNpemU9IjEzIiBsZW5ndGhBZGp1c3Q9InNwYWNpbmciIHRleHRMZW5ndGg9IjQ3NC41IiB4PSI4MTMiIHk9IjExMTQuMjE4OCI+JiMyNTQ5MDsmIzIwMTgyOyYjMjEwNDY7JiMyNDQ4MTsmIzY1MzA2O0BWZXJzaW9uICYjMTIzOTU7JiMxMjQyNDsmIzEyNDI3OyYjMjcwMDU7JiMzNTI1MTsmIzEyNTI1OyYjMTI0ODM7JiMxMjQ2MzsmIzEyNDM0OyYjMzY5Njk7JiMyOTk5MjsmIzY1Mjg4OyYjMTI0OTY7JiMxMjU0MDsmIzEyNDcyOyYjMTI1MTk7JiMxMjUzMTsmIzE5OTgxOyYjMTk5Njg7JiMzMzI2ODsmIzI2MTc4OyYjMTIzOTk7JiMyNjM1NjsmIzI2MDMyOyYjMjAwMTM7JiMyNzQ5MDsmIzY1Mjg5OzwvdGV4dD48ZyBjbGFzcz0ibWVzc2FnZSIgZGF0YS1wYXJ0aWNpcGFudC0xPSJTZXJ2aWNlIiBkYXRhLXBhcnRpY2lwYW50LTI9IlJlcG9zaXRvcnkiPjxwb2x5Z29uIGZpbGw9IiMxODE4MTgiIHBvaW50cz0iOTU0LDExNDEuNzU3OCw5NjQsMTE0NS43NTc4LDk1NCwxMTQ5Ljc1NzgsOTU4LDExNDUuNzU3OCIgc3R5bGU9InN0cm9rZTojMTgxODE4O3N0cm9rZS13aWR0aDoxOyIvPjxsaW5lIHN0eWxlPSJzdHJva2U6IzE4MTgxODtzdHJva2Utd2lkdGg6MTsiIHgxPSI3OTkiIHgyPSI5NjAiIHkxPSIxMTQ1Ljc1NzgiIHkyPSIxMTQ1Ljc1NzgiLz48dGV4dCBmaWxsPSIjMDAwMDAwIiBmb250LWZhbWlseT0ic2Fucy1zZXJpZiIgZm9udC1zaXplPSIxMyIgbGVuZ3RoQWRqdXN0PSJzcGFjaW5nIiB0ZXh0TGVuZ3RoPSIxNDMiIHg9IjgwNiIgeT0iMTE0Mi4xMzI4Ij51cGRhdGVDZW50ZXJJbmZvKGZvcm0pPC90ZXh0PjwvZz48ZyBjbGFzcz0ibWVzc2FnZSIgZGF0YS1wYXJ0aWNpcGFudC0xPSJSZXBvc2l0b3J5IiBkYXRhLXBhcnRpY2lwYW50LTI9IkRCIj48cG9seWdvbiBmaWxsPSIjMTgxODE4IiBwb2ludHM9IjExMzIsMTE2OS42NzE5LDExNDIsMTE3My42NzE5LDExMzIsMTE3Ny42NzE5LDExMzYsMTE3My42NzE5IiBzdHlsZT0ic3Ryb2tlOiMxODE4MTg7c3Ryb2tlLXdpZHRoOjE7Ii8+PGxpbmUgc3R5bGU9InN0cm9rZTojMTgxODE4O3N0cm9rZS13aWR0aDoxOyIgeDE9Ijk2NiIgeDI9IjExMzgiIHkxPSIxMTczLjY3MTkiIHkyPSIxMTczLjY3MTkiLz48dGV4dCBmaWxsPSIjMDAwMDAwIiBmb250LWZhbWlseT0ic2Fucy1zZXJpZiIgZm9udC1zaXplPSIxMyIgbGVuZ3RoQWRqdXN0PSJzcGFjaW5nIiB0ZXh0TGVuZ3RoPSIxMTciIHg9Ijk3MyIgeT0iMTE3MC4wNDY5Ij5VUERBVEUgY2VudGVyX2luZm88L3RleHQ+PC9nPjxnIGNsYXNzPSJtZXNzYWdlIiBkYXRhLXBhcnRpY2lwYW50LTE9IkRCIiBkYXRhLXBhcnRpY2lwYW50LTI9IlJlcG9zaXRvcnkiPjxwb2x5Z29uIGZpbGw9IiMxODE4MTgiIHBvaW50cz0iOTc3LDExOTcuNTg1OSw5NjcsMTIwMS41ODU5LDk3NywxMjA1LjU4NTksOTczLDEyMDEuNTg1OSIgc3R5bGU9InN0cm9rZTojMTgxODE4O3N0cm9rZS13aWR0aDoxOyIvPjxsaW5lIHN0eWxlPSJzdHJva2U6IzE4MTgxODtzdHJva2Utd2lkdGg6MTtzdHJva2UtZGFzaGFycmF5OjIuMCwyLjA7IiB4MT0iOTcxIiB4Mj0iMTE0MyIgeTE9IjEyMDEuNTg1OSIgeTI9IjEyMDEuNTg1OSIvPjx0ZXh0IGZpbGw9IiMwMDAwMDAiIGZvbnQtZmFtaWx5PSJzYW5zLXNlcmlmIiBmb250LXNpemU9IjEzIiBsZW5ndGhBZGp1c3Q9InNwYWNpbmciIHRleHRMZW5ndGg9IjI2IiB4PSI5ODMiIHk9IjExOTcuOTYwOSI+JiMyNTEwNDsmIzIxMTUxOzwvdGV4dD48L2c+PGcgY2xhc3M9Im1lc3NhZ2UiIGRhdGEtcGFydGljaXBhbnQtMT0iUmVwb3NpdG9yeSIgZGF0YS1wYXJ0aWNpcGFudC0yPSJTZXJ2aWNlIj48cG9seWdvbiBmaWxsPSIjMTgxODE4IiBwb2ludHM9IjgxMCwxMjI1LjUsODAwLDEyMjkuNSw4MTAsMTIzMy41LDgwNiwxMjI5LjUiIHN0eWxlPSJzdHJva2U6IzE4MTgxODtzdHJva2Utd2lkdGg6MTsiLz48bGluZSBzdHlsZT0ic3Ryb2tlOiMxODE4MTg7c3Ryb2tlLXdpZHRoOjE7c3Ryb2tlLWRhc2hhcnJheToyLjAsMi4wOyIgeDE9IjgwNCIgeDI9Ijk2NSIgeTE9IjEyMjkuNSIgeTI9IjEyMjkuNSIvPjx0ZXh0IGZpbGw9IiMwMDAwMDAiIGZvbnQtZmFtaWx5PSJzYW5zLXNlcmlmIiBmb250LXNpemU9IjEzIiBsZW5ndGhBZGp1c3Q9InNwYWNpbmciIHRleHRMZW5ndGg9IjI2IiB4PSI4MTYiIHk9IjEyMjUuODc1Ij4mIzI1MTA0OyYjMjExNTE7PC90ZXh0PjwvZz48ZyBjbGFzcz0ibWVzc2FnZSIgZGF0YS1wYXJ0aWNpcGFudC0xPSJTZXJ2aWNlIiBkYXRhLXBhcnRpY2lwYW50LTI9IkNvbnRyb2xsZXIiPjxwb2x5Z29uIGZpbGw9IiMxODE4MTgiIHBvaW50cz0iMzEwLjUsMTI1My40MTQxLDMwMC41LDEyNTcuNDE0MSwzMTAuNSwxMjYxLjQxNDEsMzA2LjUsMTI1Ny40MTQxIiBzdHlsZT0ic3Ryb2tlOiMxODE4MTg7c3Ryb2tlLXdpZHRoOjE7Ii8+PGxpbmUgc3R5bGU9InN0cm9rZTojMTgxODE4O3N0cm9rZS13aWR0aDoxO3N0cm9rZS1kYXNoYXJyYXk6Mi4wLDIuMDsiIHgxPSIzMDQuNSIgeDI9Ijc5OCIgeTE9IjEyNTcuNDE0MSIgeTI9IjEyNTcuNDE0MSIvPjx0ZXh0IGZpbGw9IiMwMDAwMDAiIGZvbnQtZmFtaWx5PSJzYW5zLXNlcmlmIiBmb250LXNpemU9IjEzIiBsZW5ndGhBZGp1c3Q9InNwYWNpbmciIHRleHRMZW5ndGg9IjI2IiB4PSIzMTYuNSIgeT0iMTI1My43ODkxIj4mIzI1MTA0OyYjMjExNTE7PC90ZXh0PjwvZz48cGF0aCBkPSJNMzAsMTI3Mi40MTQxIEw5NC41LDEyNzIuNDE0MSBMOTQuNSwxMjc4LjMyODEgTDg0LjUsMTI4OC4zMjgxIEwzMCwxMjg4LjMyODEgTDMwLDEyNzIuNDE0MSIgZmlsbD0iI0VFRUVFRSIgc3R5bGU9InN0cm9rZTojMDAwMDAwO3N0cm9rZS13aWR0aDoxLjU7Ii8+PHJlY3QgZmlsbD0ibm9uZSIgaGVpZ2h0PSIyMTAuOTQ1MyIgc3R5bGU9InN0cm9rZTojMDAwMDAwO3N0cm9rZS13aWR0aDoxLjU7IiB3aWR0aD0iMTI5NSIgeD0iMzAiIHk9IjEyNzIuNDE0MSIvPjx0ZXh0IGZpbGw9IiMwMDAwMDAiIGZvbnQtZmFtaWx5PSJzYW5zLXNlcmlmIiBmb250LXNpemU9IjEzIiBmb250LXdlaWdodD0iYm9sZCIgbGVuZ3RoQWRqdXN0PSJzcGFjaW5nIiB0ZXh0TGVuZ3RoPSIxOS41IiB4PSI0NSIgeT0iMTI4NS43MDMxIj5hbHQ8L3RleHQ+PHRleHQgZmlsbD0iIzAwMDAwMCIgZm9udC1mYW1pbHk9InNhbnMtc2VyaWYiIGZvbnQtc2l6ZT0iMTEiIGZvbnQtd2VpZ2h0PSJib2xkIiBsZW5ndGhBZGp1c3Q9InNwYWNpbmciIHRleHRMZW5ndGg9IjcxLjUiIHg9IjEwOS41IiB5PSIxMjg0LjgxMjUiPltIVFRQIDIwMCBPS108L3RleHQ+PGcgY2xhc3M9Im1lc3NhZ2UiIGRhdGEtcGFydGljaXBhbnQtMT0iQ29udHJvbGxlciIgZGF0YS1wYXJ0aWNpcGFudC0yPSJGcm9udGVuZCI+PHBvbHlnb24gZmlsbD0iIzE4MTgxOCIgcG9pbnRzPSIxMjY4LDEzMDQuMjQyMiwxMjc4LDEzMDguMjQyMiwxMjY4LDEzMTIuMjQyMiwxMjcyLDEzMDguMjQyMiIgc3R5bGU9InN0cm9rZTojMTgxODE4O3N0cm9rZS13aWR0aDoxOyIvPjxsaW5lIHN0eWxlPSJzdHJva2U6IzE4MTgxODtzdHJva2Utd2lkdGg6MTtzdHJva2UtZGFzaGFycmF5OjIuMCwyLjA7IiB4MT0iMjk5LjUiIHgyPSIxMjc0IiB5MT0iMTMwOC4yNDIyIiB5Mj0iMTMwOC4yNDIyIi8+PHRleHQgZmlsbD0iIzAwMDAwMCIgZm9udC1mYW1pbHk9InNhbnMtc2VyaWYiIGZvbnQtc2l6ZT0iMTMiIGxlbmd0aEFkanVzdD0ic3BhY2luZyIgdGV4dExlbmd0aD0iMTE3IiB4PSIzMDYuNSIgeT0iMTMwNC42MTcyIj4mIzI2MzU2OyYjMjYwMzI7JiMyNTEwNDsmIzIxMTUxOyYjMTI1MjQ7JiMxMjQ3MzsmIzEyNTA5OyYjMTI1MzE7JiMxMjQ3Mzs8L3RleHQ+PC9nPjxnIGNsYXNzPSJtZXNzYWdlIiBkYXRhLXBhcnRpY2lwYW50LTE9IkZyb250ZW5kIiBkYXRhLXBhcnRpY2lwYW50LTI9IlVzZXIiPjxwb2x5Z29uIGZpbGw9IiMxODE4MTgiIHBvaW50cz0iNzIsMTMzMi4xNTYzLDYyLDEzMzYuMTU2Myw3MiwxMzQwLjE1NjMsNjgsMTMzNi4xNTYzIiBzdHlsZT0ic3Ryb2tlOiMxODE4MTg7c3Ryb2tlLXdpZHRoOjE7Ii8+PGxpbmUgc3R5bGU9InN0cm9rZTojMTgxODE4O3N0cm9rZS13aWR0aDoxO3N0cm9rZS1kYXNoYXJyYXk6Mi4wLDIuMDsiIHgxPSI2NiIgeDI9IjEyNzkiIHkxPSIxMzM2LjE1NjMiIHkyPSIxMzM2LjE1NjMiLz48dGV4dCBmaWxsPSIjMDAwMDAwIiBmb250LWZhbWlseT0ic2Fucy1zZXJpZiIgZm9udC1zaXplPSIxMyIgbGVuZ3RoQWRqdXN0PSJzcGFjaW5nIiB0ZXh0TGVuZ3RoPSIxNTYiIHg9Ijc4IiB5PSIxMzMyLjUzMTMiPiYjMTI1MDk7JiMxMjQ4MzsmIzEyNTAzOyYjMTI0NTA7JiMxMjQ4MzsmIzEyNTAzOyYjMTIzMDA7JiMyNjM1NjsmIzI2MDMyOyYjMjM0MzY7JiMyMDEwMjsmIzEyMzAxOzwvdGV4dD48L2c+PGxpbmUgc3R5bGU9InN0cm9rZTojMDAwMDAwO3N0cm9rZS13aWR0aDoxO3N0cm9rZS1kYXNoYXJyYXk6Mi4wLDIuMDsiIHgxPSIzMCIgeDI9IjEzMjUiIHkxPSIxMzQ1LjE1NjMiIHkyPSIxMzQ1LjE1NjMiLz48dGV4dCBmaWxsPSIjMDAwMDAwIiBmb250LWZhbWlseT0ic2Fucy1zZXJpZiIgZm9udC1zaXplPSIxMSIgZm9udC13ZWlnaHQ9ImJvbGQiIGxlbmd0aEFkanVzdD0ic3BhY2luZyIgdGV4dExlbmd0aD0iMTg3IiB4PSIzNSIgeT0iMTM1NS41NTQ3Ij5bSFRUUCA0MDAmIzY1Mjg4OyYjMTI0OTY7JiMxMjUyMjsmIzEyNDg3OyYjMTI1NDA7JiMxMjQ3MTsmIzEyNTE5OyYjMTI1MzE7JiMxMjQ1NjsmIzEyNTIxOyYjMTI1NDA7JiM2NTI4OTtdPC90ZXh0PjxnIGNsYXNzPSJtZXNzYWdlIiBkYXRhLXBhcnRpY2lwYW50LTE9IkNvbnRyb2xsZXIiIGRhdGEtcGFydGljaXBhbnQtMj0iRnJvbnRlbmQiPjxwb2x5Z29uIGZpbGw9IiMxODE4MTgiIHBvaW50cz0iMTI2OCwxMzczLjg0MzgsMTI3OCwxMzc3Ljg0MzgsMTI2OCwxMzgxLjg0MzgsMTI3MiwxMzc3Ljg0MzgiIHN0eWxlPSJzdHJva2U6IzE4MTgxODtzdHJva2Utd2lkdGg6MTsiLz48bGluZSBzdHlsZT0ic3Ryb2tlOiMxODE4MTg7c3Ryb2tlLXdpZHRoOjE7c3Ryb2tlLWRhc2hhcnJheToyLjAsMi4wOyIgeDE9IjI5OS41IiB4Mj0iMTI3NCIgeTE9IjEzNzcuODQzOCIgeTI9IjEzNzcuODQzOCIvPjx0ZXh0IGZpbGw9IiMwMDAwMDAiIGZvbnQtZmFtaWx5PSJzYW5zLXNlcmlmIiBmb250LXNpemU9IjEzIiBsZW5ndGhBZGp1c3Q9InNwYWNpbmciIHRleHRMZW5ndGg9IjY1IiB4PSIzMDYuNSIgeT0iMTM3NC4yMTg4Ij4mIzEyNDU2OyYjMTI1MjE7JiMxMjU0MDsmIzM1NDQzOyYjMzIwNDg7PC90ZXh0PjwvZz48ZyBjbGFzcz0ibWVzc2FnZSIgZGF0YS1wYXJ0aWNpcGFudC0xPSJGcm9udGVuZCIgZGF0YS1wYXJ0aWNpcGFudC0yPSJVc2VyIj48cG9seWdvbiBmaWxsPSIjMTgxODE4IiBwb2ludHM9IjcyLDE0MDEuNzU3OCw2MiwxNDA1Ljc1NzgsNzIsMTQwOS43NTc4LDY4LDE0MDUuNzU3OCIgc3R5bGU9InN0cm9rZTojMTgxODE4O3N0cm9rZS13aWR0aDoxOyIvPjxsaW5lIHN0eWxlPSJzdHJva2U6IzE4MTgxODtzdHJva2Utd2lkdGg6MTtzdHJva2UtZGFzaGFycmF5OjIuMCwyLjA7IiB4MT0iNjYiIHgyPSIxMjc5IiB5MT0iMTQwNS43NTc4IiB5Mj0iMTQwNS43NTc4Ii8+PHRleHQgZmlsbD0iIzAwMDAwMCIgZm9udC1mYW1pbHk9InNhbnMtc2VyaWYiIGZvbnQtc2l6ZT0iMTMiIGxlbmd0aEFkanVzdD0ic3BhY2luZyIgdGV4dExlbmd0aD0iOTEiIHg9Ijc4IiB5PSIxNDAyLjEzMjgiPiYjMjA4Mzc7JiMyMTE0NzsmIzEyNDU2OyYjMTI1MjE7JiMxMjU0MDsmIzM0OTIwOyYjMzEwMzQ7PC90ZXh0PjwvZz48bGluZSBzdHlsZT0ic3Ryb2tlOiMwMDAwMDA7c3Ryb2tlLXdpZHRoOjE7c3Ryb2tlLWRhc2hhcnJheToyLjAsMi4wOyIgeDE9IjMwIiB4Mj0iMTMyNSIgeTE9IjE0MTQuNzU3OCIgeTI9IjE0MTQuNzU3OCIvPjx0ZXh0IGZpbGw9IiMwMDAwMDAiIGZvbnQtZmFtaWx5PSJzYW5zLXNlcmlmIiBmb250LXNpemU9IjExIiBmb250LXdlaWdodD0iYm9sZCIgbGVuZ3RoQWRqdXN0PSJzcGFjaW5nIiB0ZXh0TGVuZ3RoPSIxNTQiIHg9IjM1IiB5PSIxNDI1LjE1NjMiPltIVFRQIDUwMCYjNjUyODg7JiMxMjQ2OTsmIzEyNTQwOyYjMTI0OTY7JiMxMjU0MDsmIzEyNDU2OyYjMTI1MjE7JiMxMjU0MDsmIzY1Mjg5O108L3RleHQ+PGcgY2xhc3M9Im1lc3NhZ2UiIGRhdGEtcGFydGljaXBhbnQtMT0iQ29udHJvbGxlciIgZGF0YS1wYXJ0aWNpcGFudC0yPSJGcm9udGVuZCI+PHBvbHlnb24gZmlsbD0iIzE4MTgxOCIgcG9pbnRzPSIxMjY4LDE0NDMuNDQ1MywxMjc4LDE0NDcuNDQ1MywxMjY4LDE0NTEuNDQ1MywxMjcyLDE0NDcuNDQ1MyIgc3R5bGU9InN0cm9rZTojMTgxODE4O3N0cm9rZS13aWR0aDoxOyIvPjxsaW5lIHN0eWxlPSJzdHJva2U6IzE4MTgxODtzdHJva2Utd2lkdGg6MTtzdHJva2UtZGFzaGFycmF5OjIuMCwyLjA7IiB4MT0iMjk5LjUiIHgyPSIxMjc0IiB5MT0iMTQ0Ny40NDUzIiB5Mj0iMTQ0Ny40NDUzIi8+PHRleHQgZmlsbD0iIzAwMDAwMCIgZm9udC1mYW1pbHk9InNhbnMtc2VyaWYiIGZvbnQtc2l6ZT0iMTMiIGxlbmd0aEFkanVzdD0ic3BhY2luZyIgdGV4dExlbmd0aD0iMTE3IiB4PSIzMDYuNSIgeT0iMTQ0My44MjAzIj4mIzEyNDY5OyYjMTI1NDA7JiMxMjQ5NjsmIzEyNTQwOyYjMjA4Njk7JiMzNzA5NjsmIzEyNDU2OyYjMTI1MjE7JiMxMjU0MDs8L3RleHQ+PC9nPjxnIGNsYXNzPSJtZXNzYWdlIiBkYXRhLXBhcnRpY2lwYW50LTE9IkZyb250ZW5kIiBkYXRhLXBhcnRpY2lwYW50LTI9IlVzZXIiPjxwb2x5Z29uIGZpbGw9IiMxODE4MTgiIHBvaW50cz0iNzIsMTQ3MS4zNTk0LDYyLDE0NzUuMzU5NCw3MiwxNDc5LjM1OTQsNjgsMTQ3NS4zNTk0IiBzdHlsZT0ic3Ryb2tlOiMxODE4MTg7c3Ryb2tlLXdpZHRoOjE7Ii8+PGxpbmUgc3R5bGU9InN0cm9rZTojMTgxODE4O3N0cm9rZS13aWR0aDoxO3N0cm9rZS1kYXNoYXJyYXk6Mi4wLDIuMDsiIHgxPSI2NiIgeDI9IjEyNzkiIHkxPSIxNDc1LjM1OTQiIHkyPSIxNDc1LjM1OTQiLz48dGV4dCBmaWxsPSIjMDAwMDAwIiBmb250LWZhbWlseT0ic2Fucy1zZXJpZiIgZm9udC1zaXplPSIxMyIgbGVuZ3RoQWRqdXN0PSJzcGFjaW5nIiB0ZXh0TGVuZ3RoPSIxMTciIHg9Ijc4IiB5PSIxNDcxLjczNDQiPiYjMTI0Njk7JiMxMjU0MDsmIzEyNDk2OyYjMTI1NDA7JiMxMjQ1NjsmIzEyNTIxOyYjMTI1NDA7JiMzNDkyMDsmIzMxMDM0OzwvdGV4dD48L2c+PHBhdGggZD0iTTMwLDE0OTcuMzU5NCBMOTQuNSwxNDk3LjM1OTQgTDk0LjUsMTUwMy4yNzM0IEw4NC41LDE1MTMuMjczNCBMMzAsMTUxMy4yNzM0IEwzMCwxNDk3LjM1OTQiIGZpbGw9IiNFRUVFRUUiIHN0eWxlPSJzdHJva2U6IzAwMDAwMDtzdHJva2Utd2lkdGg6MS41OyIvPjxyZWN0IGZpbGw9Im5vbmUiIGhlaWdodD0iODQuNzQyMiIgc3R5bGU9InN0cm9rZTojMDAwMDAwO3N0cm9rZS13aWR0aDoxLjU7IiB3aWR0aD0iMTM0NyIgeD0iMzAiIHk9IjE0OTcuMzU5NCIvPjx0ZXh0IGZpbGw9IiMwMDAwMDAiIGZvbnQtZmFtaWx5PSJzYW5zLXNlcmlmIiBmb250LXNpemU9IjEzIiBmb250LXdlaWdodD0iYm9sZCIgbGVuZ3RoQWRqdXN0PSJzcGFjaW5nIiB0ZXh0TGVuZ3RoPSIxOS41IiB4PSI0NSIgeT0iMTUxMC42NDg0Ij5hbHQ8L3RleHQ+PHRleHQgZmlsbD0iIzAwMDAwMCIgZm9udC1mYW1pbHk9InNhbnMtc2VyaWYiIGZvbnQtc2l6ZT0iMTEiIGZvbnQtd2VpZ2h0PSJib2xkIiBsZW5ndGhBZGp1c3Q9InNwYWNpbmciIHRleHRMZW5ndGg9IjU1IiB4PSIxMDkuNSIgeT0iMTUwOS43NTc4Ij5bJiMzNjg5MDsmIzIwNDQ5OyYjMjI4MzM7JiMyNTk0MztdPC90ZXh0PjxnIGNsYXNzPSJtZXNzYWdlIiBkYXRhLXBhcnRpY2lwYW50LTE9IkZyb250ZW5kIiBkYXRhLXBhcnRpY2lwYW50LTI9IkZyb250ZW5kIj48bGluZSBzdHlsZT0ic3Ryb2tlOiMxODE4MTg7c3Ryb2tlLXdpZHRoOjE7IiB4MT0iMTI4MCIgeDI9IjEzMjIiIHkxPSIxNTMzLjE4NzUiIHkyPSIxNTMzLjE4NzUiLz48bGluZSBzdHlsZT0ic3Ryb2tlOiMxODE4MTg7c3Ryb2tlLXdpZHRoOjE7IiB4MT0iMTMyMiIgeDI9IjEzMjIiIHkxPSIxNTMzLjE4NzUiIHkyPSIxNTQ2LjE4NzUiLz48bGluZSBzdHlsZT0ic3Ryb2tlOiMxODE4MTg7c3Ryb2tlLXdpZHRoOjE7IiB4MT0iMTI4MSIgeDI9IjEzMjIiIHkxPSIxNTQ2LjE4NzUiIHkyPSIxNTQ2LjE4NzUiLz48cG9seWdvbiBmaWxsPSIjMTgxODE4IiBwb2ludHM9IjEyOTEsMTU0Mi4xODc1LDEyODEsMTU0Ni4xODc1LDEyOTEsMTU1MC4xODc1LDEyODcsMTU0Ni4xODc1IiBzdHlsZT0ic3Ryb2tlOiMxODE4MTg7c3Ryb2tlLXdpZHRoOjE7Ii8+PHRleHQgZmlsbD0iIzAwMDAwMCIgZm9udC1mYW1pbHk9InNhbnMtc2VyaWYiIGZvbnQtc2l6ZT0iMTMiIGxlbmd0aEFkanVzdD0ic3BhY2luZyIgdGV4dExlbmd0aD0iNzgiIHg9IjEyODciIHk9IjE1MjkuNTYyNSI+Y2F0Y2goZXJyb3IpPC90ZXh0PjwvZz48ZyBjbGFzcz0ibWVzc2FnZSIgZGF0YS1wYXJ0aWNpcGFudC0xPSJGcm9udGVuZCIgZGF0YS1wYXJ0aWNpcGFudC0yPSJVc2VyIj48cG9seWdvbiBmaWxsPSIjMTgxODE4IiBwb2ludHM9IjcyLDE1NzAuMTAxNiw2MiwxNTc0LjEwMTYsNzIsMTU3OC4xMDE2LDY4LDE1NzQuMTAxNiIgc3R5bGU9InN0cm9rZTojMTgxODE4O3N0cm9rZS13aWR0aDoxOyIvPjxsaW5lIHN0eWxlPSJzdHJva2U6IzE4MTgxODtzdHJva2Utd2lkdGg6MTtzdHJva2UtZGFzaGFycmF5OjIuMCwyLjA7IiB4MT0iNjYiIHgyPSIxMjc5IiB5MT0iMTU3NC4xMDE2IiB5Mj0iMTU3NC4xMDE2Ii8+PHRleHQgZmlsbD0iIzAwMDAwMCIgZm9udC1mYW1pbHk9InNhbnMtc2VyaWYiIGZvbnQtc2l6ZT0iMTMiIGxlbmd0aEFkanVzdD0ic3BhY2luZyIgdGV4dExlbmd0aD0iMTE3IiB4PSI3OCIgeT0iMTU3MC40NzY2Ij4mIzM2ODkwOyYjMjA0NDk7JiMyMjgzMzsmIzI1OTQzOyYjMTI0NTY7JiMxMjUyMTsmIzEyNTQwOyYjMzQ5MjA7JiMzMTAzNDs8L3RleHQ+PC9nPjwhLS1TUkM9W3RMTEJKbkRINUR4Rmh4WG5YT2E2T2RKSkgxSWlnNzRYcVVCTVo5cW5aWWFwcFVyMHdnd1Q2cWhiT09YMVozcGE4S2VIQW5mR0FiSnpDUlNwZklsLVdsVkhrVkVXQ19aTzY2VkpFdnRwZFZGVHh4b29DWklyajlRTFRIRVM2aWdmeTFJR1N1MFVmQXBfcW5MTERyTHVHdHpXTjM1cTRuZ1BKRGxLVXVxMjMxWG1jOWRJR3ZwSE5KY1pBUjlmbTFsM3NHbjNZNy1ZTzdUS0VBZ2JMTVJTRmFVUHRiUXBIYXVabFh1cFEteXIyQjBOQV9SLTVoT0VDRGgxclctQ3dXdVFpclMtT0xHWVB1cGNDRGZZM2ZCemFZSGRKNjNGSjNjQm9fUnVzLVBDd1FYVVJpdVVqOVJNTWlNenZpUjFLVnM5MUNYM3ZHSGRVdHJROVMycmdvZEdCSWwzY2p3VDVYb3hMS0twQnNkQW5ObS1wdjBVMGZtYjNnWVoxODJnRUdCcjJCR0s2TjdtcmZzZWFDVFl6UjlhOU8wenppUVVNQzFlMWJsaEwxMzRCcUdfS1lFSGRtR092S1Vyd3BIZG1BSlhRQWsycUlPTGhzWFhRdTl6Zk95MGl3bG5VOXVqTWlLOGlKSktpTEt4aDVKajNfQzJva0U3eFhVNVJITUFaSC1oMGpqSHFpWXVndk5jLWR1eURadVQ1QVBjU1lmbWdnX2pNZXROSUtVN2xNdTU5eTE4YmFoZnJNdklEa01rMS1KSVJON2ZlbmtjMmVuSFdjcDNwbFhnY2ptOGJUY0RJMTVfbVRPc2psT21zWTJsVGxjQl9OdHJnM3ZfRUdMYkZJVWRKU3RHdkdwMEhMQnFQUEFWbmxUOVV0c2stTkFfRVJsaWxCSG1TSGtaQWJEY1l6TzE1TVRSYTRYM1pSR0VYS1U0NHZQMW9YeEpDd0lINGkxdi1nbm5DRVRua3dsMjdFNGJNNHF3Unh1VGxqclhKMTNwX3duTHQ2cEVMYVo3Q0xPcU1KblllcFJUZzFLRW50U3ZVTVRYcnZkeHNBWExkVWdRc3Vfa3FuUUVJay1OQmduLU10YV9xWkVkTzdnM2VTNWFOLWVndUVjX2ZuNk81NDNHVlgxU29CTUlfUUJja0RPMXduMHg2WTBjMl80cjVrTkY4ZDhrS3EtZTdGSWFBdkJfQkZjbFM4bXNLUmNwZmRfTWROX1JlSjVUZ2NYR0pQazlrNFJyWDZJUFNpZXB6aUpvb1J2YkhIZDhvQmM3VlFPOWpWaVpSMFotNUk1REx6SXk1NHU4X01OaU1ha2xHYmtkeHY2UzNzLVIwS1oyNFdtamRVVk91amdqeTliQzV6TFVmUkxHU2E2a1NIM2VabHlZalpQdXBSNS1VdVVqRExnOFAzdElqUjNZRWw1Y0ZjYjJLZWxVbDFSVW5WTDNreTZOSGRQNV9mZE5pdDFwXzZPeUpuV2ppYk16dXFwSzZ4TjkzYzYzaktaTDBlRDNkUk9YeF90X1BaeF9JbkZ0cHdSakJxclFycFpQcG9oQ3hweEttdHZ0X2VvNnBBQWNNRGlpQzFBbGZyQTN1NW5GM3hYckN3eGhtcU5CTk03cTdialZDTGZZYlYwcnVBMTNycDEzQ2g1VmkwdmFYeThLenNUX2M2aGlidDFYRVpaOTZCbHBGSnJrc2p2WERDd0lyd3V0cU83WHZIWDl0LWxQcFB0Y3hpVUpBNFN0VWYzWjFTeEgtaW5nY0hWT3hyRnBxN1BmaDhLZ21pVTlvZE9BNzJPUnRlUWptWm5QTmxSdzktVnZZdVcwVmRmZnNLbV94NThYREUzZmFfWnVOU1ZuNE9qMUx0dTJdLS0+PC9nPjwvc3ZnPg==;" parent="1" vertex="1">
            <mxGeometry x="80" y="-2470" width="1488" height="1647" as="geometry" />
          </mxCell>
        </UserObject>
      </root>
    </mxGraphModel>
  </diagram>
</mxfile>
